<svg width="219" height="280" viewBox="0 0 219 280" fill="none" xmlns="http://www.w3.org/2000/svg">
<g filter="url(#filter0_d)">
<g clip-path="url(#clip0)">
<rect width="219" height="280" rx="10" fill="#27CAFD"/>
<path d="M13 195C-6.2 194.2 -20.3333 173.333 -25 163L-48 -33H229V57C196.333 67.3333 126 91 106 103C81 118 97 133 94 163C91 193 37 196 13 195Z" fill="#23ADFB"/>
<path d="M39 168C18 169 7 160 -5 150V-6H190C175 6.66667 136.8 35 104 47C63 62 71 109 71 123C71 137 60 167 39 168Z" fill="#2190F7"/>
<path d="M118 224.621C52 224.621 40 265.342 36 282H233V133C224.333 138.861 204.4 158.173 194 188.528C181 226.472 184 224.621 118 224.621Z" fill="#23ADFB"/>
<path fill-rule="evenodd" clip-rule="evenodd" d="M88.0569 29.9706C96.0878 29.9706 102.599 36.4693 102.599 44.4851C102.599 52.5017 96.0878 59 88.0569 59C82.753 59 78.1135 56.1658 75.573 51.9323L76.7072 51.7358V52.8038C76.7353 52.8406 76.7623 52.8781 76.7912 52.9137H80.3231V56.2382C81.0952 56.7787 81.9302 57.2686 82.8255 57.6999V52.9137H86.3614V51.7358H91.43V48.592H92.8414L96.7208 51.0099V41.849L92.8414 44.2668H91.43V41.123H89.1894C90.0542 40.1792 90.5819 38.9231 90.5819 37.5435C90.5819 34.6129 88.2003 32.2358 85.2641 32.2358C83.8309 32.2358 82.5304 32.8024 81.5741 33.7232C81.073 33.2409 80.417 32.8257 79.7559 32.5671C82.1093 30.931 84.9706 29.9706 88.0569 29.9706ZM73.9077 41.123L73.9184 41.0792L73.958 41.123H73.9077Z" fill="white"/>
<path d="M21.7988 51.1967V49.8152C21.1266 49.8053 20.5031 49.6871 19.9287 49.4633C19.3543 49.2435 18.829 48.9173 18.352 48.493C17.8632 48.0688 17.5087 47.4773 17.2848 46.7209C17.0646 45.9673 16.9707 45.0499 17.0079 43.9745C17.0689 43.0176 17.2274 42.192 17.4885 41.5013C17.7452 40.8109 18.1076 40.255 18.5719 39.8307C19.0243 39.4164 19.5214 39.1107 20.059 38.9166C20.5969 38.7193 21.1757 38.637 21.7988 38.6667V37.1274H24.5124V38.6667C24.8911 38.6568 25.2658 38.6861 25.6326 38.7588C25.9994 38.8343 26.3576 38.9526 26.7121 39.1206C27.0666 39.2882 27.3927 39.512 27.6858 39.7912C27.9793 40.0711 28.24 40.4127 28.4721 40.8176C28.7043 41.2217 28.8877 41.6891 29.018 42.2181C29.1523 42.7479 29.2299 43.3331 29.2545 43.9745C29.3155 45.0598 29.2383 45.9775 29.022 46.7304C28.8061 47.4804 28.4599 48.0688 27.9833 48.493C27.4945 48.9173 26.9609 49.2435 26.3865 49.4633C25.8077 49.6871 25.1842 49.8053 24.5124 49.8152V51.1967H21.7988ZM21.7988 40.0083C21.5053 40.028 21.249 40.1202 21.0327 40.2878C20.8128 40.4527 20.6377 40.6891 20.5031 40.9948C20.3565 41.3008 20.2424 41.7085 20.1568 42.2181C20.0713 42.7282 20.0142 43.3331 19.9901 44.0338C19.9778 44.7736 20.0063 45.4149 20.0752 45.9578C20.1446 46.5002 20.2468 46.9443 20.381 47.2894C20.5153 47.635 20.7027 47.9011 20.9432 48.0854C21.1836 48.2728 21.4688 48.3748 21.7988 48.3946V40.0083ZM24.5124 40.0083V48.3946C24.8542 48.3748 25.1478 48.2696 25.3882 48.0822C25.6326 47.8944 25.82 47.6251 25.9543 47.2697C26.089 46.9245 26.1868 46.4805 26.2439 45.9412C26.3049 45.3987 26.3211 44.7637 26.2966 44.0338C26.2843 43.3331 26.2395 42.7313 26.1662 42.2252C26.089 41.7219 25.9789 41.3107 25.8323 40.9948C25.6857 40.6891 25.5023 40.4527 25.282 40.2878C25.0622 40.1202 24.8055 40.028 24.5124 40.0083ZM33.3612 37.1076H36.1477L39.228 51.1967H36.4899L36.0015 48.5132H33.3612L32.7991 51.1967H30.1589L33.3612 37.1076ZM33.6548 46.7371H35.6834L34.6566 41.1925L33.6548 46.7371ZM47.7347 37.1076V38.9427H43.7745V42.0999C44.8258 42.1102 45.7017 42.2252 46.3985 42.4455C47.0993 42.6657 47.6245 42.9978 47.9791 43.4419C48.3332 43.8859 48.5903 44.379 48.7571 44.9214C48.9203 45.4643 48.9936 46.0562 48.9813 46.6975C48.9813 47.2697 48.8957 47.8122 48.729 48.3289C48.5574 48.8418 48.3091 49.3317 47.9791 49.7955C47.6372 50.2593 47.1155 50.608 46.4187 50.8444C45.7179 51.0781 44.8381 51.1967 43.7745 51.1967H41.061V37.1076H47.7347ZM43.7745 49.3811C44.0803 49.4107 44.3651 49.3811 44.6345 49.2953C44.8991 49.2071 45.1435 49.0656 45.3634 48.8683C45.5714 48.6706 45.7302 48.3847 45.8364 48.013C45.9461 47.6382 45.9992 47.1811 45.9992 46.6386C46.0115 46.1151 45.9623 45.6687 45.8562 45.2935C45.7465 44.9214 45.5836 44.6257 45.3634 44.4086C45.1313 44.2018 44.8868 44.0437 44.6262 43.9385C44.3616 43.8297 44.0803 43.7772 43.7745 43.7772V49.3811ZM53.748 46.7371V51.1967H51.0345V37.1076H53.3816C54.1758 37.1076 54.9012 37.18 55.5568 37.3279C56.2128 37.473 56.7915 37.6901 57.2926 37.9759C57.7938 38.2721 58.1725 38.7359 58.4292 39.3705C58.6859 40.0019 58.8205 40.8077 58.8324 41.7844C58.857 42.7017 58.7512 43.4782 58.5187 44.1129C58.2826 44.7475 57.9158 45.2476 57.4147 45.6122C56.4124 46.3425 55.1903 46.7173 53.748 46.7371V46.7371ZM53.748 45.0994C54.0534 45.0994 54.339 45.0432 54.6076 44.9349C54.8726 44.823 55.1167 44.6553 55.3369 44.4284C55.5568 44.2113 55.72 43.8922 55.8297 43.4684C55.9359 43.0473 55.9846 42.5242 55.9727 41.9026C55.96 41.2613 55.8994 40.7287 55.7849 40.3076C55.6673 39.89 55.4958 39.584 55.2636 39.3966C55.0315 39.2092 54.791 39.0712 54.5427 38.9858C54.2939 38.9031 54.0293 38.8739 53.748 38.9031V45.0994ZM60.8369 37.1076H63.55V44.0535L65.9213 40.0083V37.1076H68.6348V51.1967H65.9213V44.0535L63.55 48.217V51.1967H60.8369V37.1076ZM71.6169 37.1076H74.3305V43.0275C74.8561 43.0963 75.2515 43.001 75.5201 42.7444C75.7851 42.4882 75.9194 42.0702 75.9194 41.4882V39.4164C75.9194 38.5777 76.1273 37.9498 76.5469 37.5355C76.9624 37.1211 77.5942 36.9206 78.4372 36.9301C78.6452 36.9301 78.8488 36.94 79.0485 36.9598C79.2477 36.9795 79.4517 37.0092 79.6597 37.0487L79.4149 38.4101C79.2442 38.4002 79.1055 38.42 78.9954 38.4627C78.8892 38.5089 78.8163 38.5777 78.7795 38.6667C78.7426 38.7557 78.7145 38.8573 78.69 38.9759C78.6694 39.0941 78.6571 39.2289 78.6571 39.3768V41.5278C78.6571 42.1687 78.4863 42.6788 78.148 43.0571C77.8058 43.4351 77.3003 43.6886 76.6285 43.8167C76.983 43.8562 77.3003 43.9353 77.5855 44.0567C77.8668 44.1753 78.1195 44.3394 78.3394 44.547C78.5592 44.7542 78.7264 44.9811 78.8361 45.231C78.9466 45.4841 78.9993 45.7601 78.9993 46.0661V48.6512C78.9993 48.7694 78.9993 48.888 79.0033 49.0094C79.0033 49.1284 79.012 49.253 79.0239 49.3811C79.0362 49.5092 79.0607 49.6183 79.0972 49.7101C79.1336 49.799 79.1828 49.8741 79.2442 49.9338C79.3048 49.9932 79.3864 50.0323 79.4842 50.0517C79.586 50.0718 79.7084 50.0718 79.8554 50.0517L79.977 51.2165C79.525 51.3541 79.0813 51.4233 78.6452 51.4233C78.209 51.4233 77.7895 51.3541 77.3859 51.2165C76.9703 51.0682 76.6609 50.8152 76.4534 50.4601C76.2454 50.1011 76.1392 49.6381 76.1392 49.0656V46.0661C76.1392 45.8194 76.1107 45.6055 76.0497 45.4279C75.9927 45.2476 75.9071 45.0994 75.7974 44.9811C75.6872 44.8625 75.5121 44.7803 75.2677 44.7309C75.0229 44.685 74.7092 44.6751 74.3305 44.7048V51.1967H71.6169V37.1076ZM83.913 37.1076H86.6994L89.7794 51.1967H87.0417L86.5529 48.5132H83.913L83.3505 51.1967H80.7106L83.913 37.1076ZM84.2062 46.7371H86.2352L85.2084 41.1925L84.2062 46.7371Z" fill="white"/>
<path d="M22.2559 32.9642H23.1567V34.0057L24.0579 32.9642H24.874L24.0643 33.8685L24.9524 35.6668H23.9858L23.4835 34.4114L23.1567 34.7894V35.6668H22.2559V32.9642Z" fill="white"/>
<path d="M30.1002 35.3432V35.6666H29.1994V32.9641H30.1002L30.0935 34.2634L30.8184 33.3093V32.9641H31.7193V35.6666H30.8184V34.4057L30.6746 34.6085L30.1002 35.3432Z" fill="white"/>
<path d="M36.3207 35.6668V32.9642H37.2219V33.9345H37.9333V32.9642H38.8342V35.6668H37.9333V34.5154H37.2219V35.6668H36.3207Z" fill="white"/>
<path d="M45.9134 34.3126C45.9134 34.7843 45.8045 35.1366 45.5858 35.3706C45.3683 35.6047 45.0419 35.7213 44.6078 35.7213C44.1704 35.7213 43.8428 35.6047 43.6242 35.3706C43.4055 35.1366 43.2954 34.7843 43.2954 34.3126C43.2954 33.844 43.4055 33.4929 43.6242 33.2592C43.8428 33.0263 44.1704 32.9093 44.6078 32.9093C45.0419 32.9093 45.3683 33.0263 45.5858 33.2592C45.8045 33.4929 45.9134 33.844 45.9134 34.3126ZM44.9865 34.3126C44.9865 34.1425 44.9789 33.9994 44.9635 33.8824C44.948 33.7653 44.9278 33.6768 44.9017 33.6163C44.8427 33.4957 44.7448 33.4356 44.6078 33.4356C44.5392 33.4356 44.4802 33.449 44.4315 33.4775C44.3824 33.5052 44.3431 33.5479 44.3138 33.6052C44.2845 33.6629 44.2619 33.7507 44.2465 33.8685C44.2298 33.9864 44.2223 34.1346 44.2223 34.3126C44.2223 34.4798 44.2291 34.6194 44.2421 34.7337C44.2552 34.8479 44.275 34.9377 44.3008 35.0033C44.3237 35.0662 44.361 35.1136 44.4129 35.1468C44.464 35.1785 44.5293 35.1951 44.6078 35.1951C44.6795 35.1951 44.7405 35.1785 44.7896 35.1468C44.8383 35.1136 44.8752 35.0662 44.9017 35.0033C44.931 34.94 44.9528 34.8507 44.9655 34.7356C44.9797 34.6206 44.9865 34.4798 44.9865 34.3126" fill="white"/>
<path d="M50.0959 32.9642H52.5309V33.5617H51.7541V35.6668H50.8533V33.5617H50.0959V32.9642Z" fill="white"/>
<path d="M59.3078 34.4386H57.6167V34.5924C57.6167 34.713 57.6266 34.8142 57.6472 34.8945C57.6666 34.976 57.6983 35.0361 57.7411 35.0744C57.7803 35.1155 57.8247 35.1468 57.8746 35.1685C57.9245 35.1895 57.9823 35.2005 58.0477 35.2005C58.1847 35.2005 58.2913 35.1622 58.3678 35.0843C58.4438 35.0076 58.4914 34.891 58.5112 34.7348L59.3078 34.7787C59.2357 35.0938 59.0931 35.3294 58.8812 35.4864C58.668 35.643 58.384 35.7217 58.0283 35.7217C57.8092 35.7217 57.6167 35.6912 57.4511 35.6292C57.2851 35.5679 57.1469 35.475 57.036 35.3488C56.9215 35.2255 56.8355 35.0811 56.7769 34.9163C56.719 34.751 56.6897 34.5648 56.6897 34.3564C56.6897 34.1207 56.7202 33.9131 56.7824 33.7352C56.8434 33.5561 56.9345 33.4055 57.0554 33.2821C57.1762 33.1587 57.3168 33.0654 57.4776 33.0033C57.6373 32.9405 57.8191 32.9092 58.0215 32.9092C58.3872 32.9092 58.6942 33.0192 58.9422 33.2382C59.063 33.3477 59.1545 33.5023 59.2151 33.7024C59.2773 33.9025 59.3078 34.1484 59.3078 34.4386ZM58.4589 34.0057C58.462 33.9891 58.4644 33.9748 58.4644 33.961C58.4656 33.9479 58.4656 33.9369 58.4656 33.9286C58.4656 33.7562 58.4296 33.6265 58.3586 33.5387C58.2869 33.4521 58.1816 33.4082 58.0413 33.4082C57.9043 33.4082 57.8005 33.4577 57.732 33.5573C57.6626 33.6557 57.6266 33.8052 57.6234 34.0057H58.4589Z" fill="white"/>
<path d="M64.6384 33.8193L63.7831 33.7537C63.8057 33.6165 63.8517 33.4959 63.9214 33.3919C63.9899 33.2875 64.0834 33.2002 64.2011 33.1286C64.3183 33.0547 64.451 32.9989 64.598 32.9606C64.7461 32.923 64.9093 32.904 65.0888 32.904C65.3891 32.904 65.6307 32.9534 65.8133 33.0519C65.9048 33.1013 65.9801 33.1531 66.0375 33.2089C66.0966 33.2658 66.1366 33.3259 66.1596 33.3919C66.1821 33.4548 66.1996 33.537 66.213 33.6367C66.2245 33.7371 66.2313 33.8549 66.2313 33.9894V35.0692C66.2313 35.236 66.2356 35.3697 66.2455 35.4681C66.2542 35.5678 66.2673 35.6338 66.2835 35.6666H65.4544C65.4382 35.631 65.4259 35.5781 65.4196 35.5077C65.412 35.4373 65.4089 35.3515 65.4089 35.2499C65.3106 35.4092 65.189 35.5271 65.0421 35.6046C64.8951 35.6828 64.7232 35.7216 64.5275 35.7216C64.3999 35.7216 64.2858 35.7058 64.1836 35.6757C64.0826 35.6449 63.9919 35.5982 63.9135 35.535C63.8354 35.4721 63.7764 35.3942 63.7376 35.3013C63.6984 35.2092 63.6789 35.102 63.6789 34.9814C63.6789 34.8308 63.7083 34.6975 63.7669 34.5821C63.8255 34.4662 63.9135 34.3674 64.0311 34.2855C64.1519 34.2033 64.3207 34.1372 64.5374 34.0878C64.7537 34.0388 65.0203 34.006 65.3368 33.9894V33.8854C65.3368 33.7944 65.3304 33.7189 65.3197 33.6576C65.3075 33.5967 65.2912 33.5477 65.2718 33.5125C65.2488 33.4765 65.216 33.4501 65.1736 33.4338C65.1312 33.4164 65.0793 33.4081 65.0171 33.4081C64.9026 33.4081 64.8135 33.4421 64.7493 33.5105C64.6851 33.579 64.6483 33.6821 64.6384 33.8193ZM65.3368 34.3729C65.2065 34.3867 65.0943 34.4057 64.9997 34.4302C64.9062 34.4551 64.8309 34.4852 64.7755 34.5212C64.72 34.5568 64.6776 34.6042 64.6491 34.6643C64.6202 34.7248 64.6059 34.7979 64.6059 34.8826C64.6059 34.9976 64.6317 35.0838 64.6832 35.1415C64.7331 35.1989 64.8083 35.2281 64.9062 35.2281C64.9612 35.2281 65.0139 35.2143 65.0627 35.1878C65.1118 35.1621 65.1573 35.1238 65.1997 35.0747C65.2457 35.0225 65.2805 34.9494 65.3031 34.8553C65.3261 34.7612 65.3368 34.6441 65.3368 34.5046V34.3729Z" fill="white"/>
<path d="M70.5228 32.9642H72.9579V33.5617H72.1811V35.6668H71.2802V33.5617H70.5228V32.9642Z" fill="white"/>
<path d="M77.2026 32.9643H78.0317V33.3644C78.1197 33.2193 78.2242 33.1094 78.3462 33.0362C78.4667 32.9623 78.6061 32.9255 78.7626 32.9255C78.9099 32.9255 79.0446 32.954 79.1686 33.0109C79.2914 33.0675 79.4027 33.1505 79.5006 33.2604C79.5984 33.3695 79.6725 33.5087 79.7212 33.676C79.7704 33.844 79.7945 34.0413 79.7945 34.2687C79.7945 34.5075 79.7704 34.7155 79.7212 34.8946C79.6733 35.0729 79.602 35.2227 79.5069 35.3433C79.4122 35.4639 79.297 35.5541 79.1611 35.6146C79.0252 35.6747 78.8707 35.7051 78.6976 35.7051C78.5736 35.7051 78.4603 35.685 78.3593 35.6438C78.2567 35.6035 78.1656 35.543 78.084 35.4639V36.5821H77.2026V32.9643ZM78.084 34.5593C78.084 34.6882 78.0903 34.7949 78.1034 34.8792C78.1169 34.9642 78.1359 35.0254 78.1624 35.0638C78.185 35.1022 78.2219 35.1322 78.273 35.1524C78.3245 35.1733 78.3874 35.184 78.4627 35.184C78.5312 35.184 78.5911 35.1706 78.6433 35.1441C78.6944 35.1168 78.7368 35.0772 78.7693 35.0254C78.8022 34.9733 78.8272 34.8855 78.8434 34.7601C78.8596 34.6364 78.8672 34.4743 78.8672 34.2742C78.8672 34.107 78.8596 33.9674 78.8446 33.8547C78.8291 33.7424 78.8085 33.6578 78.7824 33.6001C78.7531 33.5396 78.7139 33.4957 78.6647 33.4668C78.616 33.4383 78.5574 33.4245 78.4888 33.4245C78.433 33.4245 78.3811 33.4328 78.3332 33.4502C78.284 33.4684 78.2405 33.4957 78.2013 33.534C78.1624 33.5728 78.1331 33.6349 78.1133 33.7199C78.0935 33.8053 78.084 33.9152 78.084 34.0496V34.5593Z" fill="white"/>
<path d="M109.683 37.1375V38.9725H106.113V51.2262H103.4V37.1375H109.683ZM114.205 46.7669V51.2262H111.491V37.1375H113.838C114.632 37.1375 115.358 37.2099 116.014 37.3577C116.67 37.5025 117.248 37.7195 117.749 38.0058C118.25 38.3016 118.629 38.7654 118.886 39.4C119.143 40.0314 119.277 40.8372 119.289 41.8138C119.314 42.7316 119.208 43.5077 118.976 44.1423C118.739 44.7773 118.373 45.2771 117.872 45.6421C116.869 46.372 115.647 46.7472 114.205 46.7669V46.7669ZM114.205 45.1288C114.51 45.1288 114.796 45.0731 115.065 44.9643C115.329 44.8528 115.574 44.6852 115.794 44.4582C116.014 44.2412 116.177 43.9221 116.287 43.4978C116.392 43.0767 116.442 42.554 116.429 41.9325C116.417 41.2911 116.356 40.7581 116.242 40.3374C116.124 39.9195 115.953 39.6139 115.72 39.4265C115.488 39.2386 115.248 39.1006 114.999 39.0152C114.751 38.933 114.486 38.9033 114.205 38.933V45.1288ZM127.894 37.1375V38.9725H124.056V42.9779H126.94V44.8528H124.056V49.411H128.359V51.2262H121.343V37.1375H127.894ZM125.278 35.3618C125.278 34.6315 125.62 34.2167 126.305 34.1183C126.476 34.0791 126.672 34.0791 126.892 34.1183C127.576 34.2167 127.918 34.6315 127.918 35.3618C127.918 36.0917 127.576 36.5061 126.892 36.6045C126.672 36.6441 126.476 36.6441 126.305 36.6045C125.62 36.5061 125.278 36.0917 125.278 35.3618ZM121.465 35.3618C121.465 34.9965 121.551 34.7102 121.718 34.503C121.889 34.2958 122.137 34.1677 122.467 34.1183C122.577 34.0985 122.683 34.0886 122.781 34.0886C122.883 34.0886 122.981 34.0985 123.078 34.1183C123.408 34.1677 123.657 34.2958 123.828 34.503C123.995 34.7102 124.081 34.9965 124.081 35.3618C124.081 35.7267 123.995 36.0126 123.828 36.2198C123.657 36.4274 123.408 36.5551 123.078 36.6045C122.981 36.6243 122.883 36.6342 122.781 36.6342C122.683 36.6342 122.577 36.6243 122.467 36.6045C122.137 36.5551 121.889 36.4274 121.718 36.2198C121.551 36.0126 121.465 35.7267 121.465 35.3618ZM129.654 45.9971L132.001 45.78C131.989 46.2537 131.997 46.7076 132.021 47.1382C132.049 47.5728 132.098 47.9804 132.172 48.3651C132.245 48.7499 132.367 49.0393 132.535 49.2366C132.705 49.4307 132.917 49.5292 133.174 49.5292C133.37 49.5292 133.537 49.4699 133.671 49.352C133.809 49.2334 133.919 49.0559 134.005 48.819C134.03 48.7202 134.054 48.5359 134.074 48.2694C134.099 48.003 134.115 47.6546 134.127 47.2205C134.127 46.372 134.078 45.8196 133.98 45.5634C133.846 45.2178 133.614 44.9679 133.284 44.8097C132.954 44.6555 132.526 44.5962 132.001 44.6354V42.9779C132.453 42.9878 132.832 42.9451 133.133 42.8466C133.439 42.7513 133.663 42.6034 133.809 42.4061C133.956 42.2183 134.062 41.9684 134.123 41.6525C134.184 41.3402 134.201 40.9653 134.176 40.5312C134.164 40.2845 134.139 40.0678 134.111 39.8804C134.078 39.6926 134.041 39.5348 134.005 39.4067C133.956 39.2782 133.883 39.1797 133.785 39.1141C133.687 39.0449 133.565 39.0121 133.418 39.0121C133.223 39.0022 133.06 39.0516 132.926 39.1568C132.795 39.2651 132.697 39.4265 132.636 39.6435C132.563 39.8705 132.489 40.1465 132.416 40.4754C132.343 40.8076 132.27 41.1923 132.196 41.6363L129.947 41.3208C130.058 39.8507 130.42 38.7519 131.031 38.022C131.642 37.2953 132.502 36.9402 133.614 36.96C133.944 36.96 134.25 36.996 134.539 37.0648C134.824 37.1375 135.093 37.2459 135.35 37.3937C135.606 37.542 135.834 37.7164 136.03 37.9168C136.225 38.1177 136.388 38.351 136.523 38.6171C136.657 38.8836 136.763 39.1766 136.837 39.4925C136.91 39.8112 136.951 40.1564 136.963 40.5312C136.987 40.7783 136.971 41.0543 136.91 41.3603C136.853 41.666 136.755 42.0017 136.621 42.3666C136.486 42.7316 136.254 43.0372 135.932 43.2772C135.606 43.5208 135.191 43.6983 134.69 43.807C135.521 43.9944 136.128 44.3792 136.507 44.9549C136.89 45.5333 137.049 46.3032 136.987 47.2604C136.963 47.7432 136.885 48.2141 136.751 48.6676C136.616 49.1247 136.425 49.5687 136.181 50.0029C135.924 50.437 135.549 50.7723 135.06 51.0056C134.567 51.2428 133.956 51.3741 133.223 51.4037C132.722 51.4235 132.257 51.3512 131.825 51.1831C131.397 51.019 130.998 50.7624 130.632 50.4172C130.253 50.0721 129.984 49.5292 129.821 48.793C129.662 48.0524 129.605 47.122 129.654 45.9971" fill="white"/>
</g>
</g>
<defs>
<filter id="filter0_d" x="-44" y="-38" width="307" height="368" filterUnits="userSpaceOnUse" color-interpolation-filters="sRGB">
<feFlood flood-opacity="0" result="BackgroundImageFix"/>
<feColorMatrix in="SourceAlpha" type="matrix" values="0 0 0 0 0 0 0 0 0 0 0 0 0 0 0 0 0 0 127 0"/>
<feOffset dy="6"/>
<feGaussianBlur stdDeviation="22"/>
<feColorMatrix type="matrix" values="0 0 0 0 0.00416666 0 0 0 0 0.6415 0 0 0 0 1 0 0 0 0.25 0"/>
<feBlend mode="normal" in2="BackgroundImageFix" result="effect1_dropShadow"/>
<feBlend mode="normal" in="SourceGraphic" in2="effect1_dropShadow" result="shape"/>
</filter>
<clipPath id="clip0">
<rect width="219" height="280" rx="10" fill="white"/>
</clipPath>
</defs>
</svg>
