<svg width="219" height="280" viewBox="0 0 219 280" fill="none" xmlns="http://www.w3.org/2000/svg">
<g filter="url(#filter0_d)">
<g clip-path="url(#clip0)">
<rect width="219" height="280" rx="10" fill="#01A830"/>
<path d="M13 195C-6.2 194.2 -20.3333 173.333 -25 163L-48 -33H229V57C196.333 67.3333 126 91 106 103C81 118 97 133 94 163C91 193 37 196 13 195Z" fill="#07CC85"/>
<path d="M39 168C18 169 7 160 -5 150V-6H190C175 6.66667 136.8 35 104 47C63 62 71 109 71 123C71 137 60 167 39 168Z" fill="#00BD40"/>
<path d="M104 220C38 220 26 264 22 282H219V121C210.333 127.333 190.4 148.2 180 181C167 222 170 220 104 220Z" fill="#00BD40"/>
<path fill-rule="evenodd" clip-rule="evenodd" d="M85.0569 29.9706C93.0878 29.9706 99.5987 36.4693 99.5987 44.4851C99.5987 52.5017 93.0878 59 85.0569 59C79.753 59 75.1135 56.1658 72.573 51.9323L73.7072 51.7358V52.8038C73.7353 52.8406 73.7622 52.8781 73.7912 52.9137H77.3231V56.2382C78.0952 56.7787 78.9302 57.2686 79.8255 57.6999V52.9137H83.3614V51.7358H88.43V48.592H89.8414L93.7208 51.0099V41.849L89.8414 44.2668H88.43V41.123H86.1894C87.0542 40.1792 87.5819 38.9231 87.5819 37.5435C87.5819 34.6129 85.2003 32.2358 82.2641 32.2358C80.8309 32.2358 79.5304 32.8024 78.5741 33.7232C78.073 33.2409 77.417 32.8257 76.7558 32.5671C79.1093 30.931 81.9706 29.9706 85.0569 29.9706ZM70.9077 41.123L70.9184 41.0792L70.958 41.123H70.9077Z" fill="white"/>
<path d="M18.7988 51.1967V49.8152C18.1266 49.8054 17.5031 49.6871 16.9287 49.4633C16.3543 49.2435 15.829 48.9173 15.352 48.493C14.8632 48.0688 14.5087 47.4773 14.2848 46.7209C14.0646 45.9673 13.9707 45.0499 14.0079 43.9745C14.0689 43.0176 14.2274 42.192 14.4885 41.5013C14.7452 40.8109 15.1076 40.255 15.5719 39.8307C16.0243 39.4164 16.5214 39.1107 17.059 38.9166C17.5969 38.7193 18.1757 38.637 18.7988 38.6667V37.1274H21.5124V38.6667C21.8911 38.6568 22.2658 38.6861 22.6326 38.7588C22.9994 38.8343 23.3576 38.9526 23.7121 39.1206C24.0666 39.2883 24.3927 39.5121 24.6858 39.7912C24.9793 40.0711 25.24 40.4128 25.4721 40.8176C25.7043 41.2217 25.8877 41.6891 26.018 42.2181C26.1523 42.748 26.2299 43.3331 26.2545 43.9745C26.3155 45.0598 26.2383 45.9775 26.022 46.7304C25.8061 47.4804 25.4599 48.0688 24.9833 48.493C24.4945 48.9173 23.9609 49.2435 23.3865 49.4633C22.8077 49.6871 22.1842 49.8054 21.5124 49.8152V51.1967H18.7988ZM18.7988 40.0083C18.5053 40.028 18.249 40.1202 18.0327 40.2878C17.8128 40.4527 17.6377 40.6891 17.5031 40.9948C17.3565 41.3008 17.2424 41.7085 17.1568 42.2181C17.0713 42.7282 17.0142 43.3331 16.9901 44.0338C16.9778 44.7736 17.0063 45.4149 17.0752 45.9578C17.1446 46.5003 17.2468 46.9443 17.381 47.2895C17.5153 47.635 17.7027 47.9011 17.9432 48.0854C18.1836 48.2728 18.4688 48.3748 18.7988 48.3946V40.0083ZM21.5124 40.0083V48.3946C21.8542 48.3748 22.1478 48.2696 22.3882 48.0822C22.6326 47.8944 22.82 47.6252 22.9543 47.2697C23.089 46.9245 23.1868 46.4805 23.2439 45.9412C23.3049 45.3987 23.3211 44.7637 23.2966 44.0338C23.2843 43.3331 23.2395 42.7314 23.1662 42.2252C23.089 41.7219 22.9789 41.3107 22.8323 40.9948C22.6857 40.6891 22.5023 40.4527 22.282 40.2878C22.0622 40.1202 21.8055 40.028 21.5124 40.0083ZM30.3612 37.1077H33.1477L36.228 51.1967H33.4899L33.0015 48.5132H30.3612L29.7991 51.1967H27.1589L30.3612 37.1077ZM30.6548 46.7371H32.6834L31.6566 41.1925L30.6548 46.7371ZM44.7347 37.1077V38.9427H40.7745V42.0999C41.8258 42.1102 42.7017 42.2253 43.3985 42.4455C44.0993 42.6657 44.6245 42.9979 44.9791 43.4419C45.3332 43.8859 45.5903 44.379 45.7571 44.9214C45.9203 45.4643 45.9936 46.0562 45.9813 46.6976C45.9813 47.2697 45.8957 47.8122 45.729 48.329C45.5574 48.8418 45.3091 49.3317 44.9791 49.7955C44.6372 50.2593 44.1155 50.608 43.4187 50.8445C42.7179 51.0781 41.8381 51.1967 40.7745 51.1967H38.061V37.1077H44.7347ZM40.7745 49.3811C41.0803 49.4108 41.3651 49.3811 41.6345 49.2953C41.8991 49.2071 42.1435 49.0656 42.3634 48.8683C42.5714 48.6706 42.7302 48.3847 42.8364 48.013C42.9461 47.6382 42.9992 47.1811 42.9992 46.6386C43.0115 46.1151 42.9623 45.6687 42.8562 45.2935C42.7465 44.9214 42.5836 44.6257 42.3634 44.4086C42.1313 44.2018 41.8868 44.0437 41.6262 43.9385C41.3616 43.8298 41.0803 43.7772 40.7745 43.7772V49.3811ZM50.748 46.7371V51.1967H48.0345V37.1077H50.3816C51.1758 37.1077 51.9012 37.18 52.5568 37.3279C53.2128 37.473 53.7915 37.6901 54.2926 37.9759C54.7938 38.2721 55.1725 38.7359 55.4292 39.3705C55.6859 40.0019 55.8205 40.8078 55.8324 41.7844C55.857 42.7017 55.7512 43.4783 55.5187 44.1129C55.2826 44.7475 54.9158 45.2476 54.4147 45.6122C53.4124 46.3425 52.1903 46.7173 50.748 46.7371V46.7371ZM50.748 45.0994C51.0534 45.0994 51.339 45.0432 51.6076 44.9349C51.8726 44.823 52.1167 44.6553 52.3369 44.4284C52.5568 44.2113 52.72 43.8922 52.8297 43.4684C52.9359 43.0473 52.9846 42.5242 52.9727 41.9026C52.96 41.2613 52.8994 40.7287 52.7849 40.3076C52.6673 39.8901 52.4958 39.584 52.2636 39.3966C52.0315 39.2092 51.791 39.0712 51.5427 38.9858C51.2939 38.9031 51.0293 38.8739 50.748 38.9031V45.0994ZM57.8369 37.1077H60.55V44.0536L62.9213 40.0083V37.1077H65.6348V51.1967H62.9213V44.0536L60.55 48.2171V51.1967H57.8369V37.1077ZM68.6169 37.1077H71.3305V43.0275C71.8561 43.0963 72.2515 43.001 72.5201 42.7444C72.7851 42.4882 72.9194 42.0703 72.9194 41.4882V39.4164C72.9194 38.5777 73.1273 37.9499 73.5469 37.5355C73.9624 37.1211 74.5942 36.9206 75.4372 36.9301C75.6452 36.9301 75.8488 36.94 76.0485 36.9598C76.2477 36.9796 76.4517 37.0092 76.6597 37.0487L76.4149 38.4101C76.2442 38.4002 76.1055 38.42 75.9954 38.4627C75.8892 38.5089 75.8163 38.5777 75.7795 38.6667C75.7426 38.7557 75.7145 38.8573 75.69 38.9759C75.6694 39.0941 75.6571 39.229 75.6571 39.3768V41.5278C75.6571 42.1687 75.4863 42.6788 75.148 43.0572C74.8058 43.4352 74.3003 43.6886 73.6285 43.8167C73.983 43.8563 74.3003 43.9353 74.5855 44.0567C74.8668 44.1753 75.1195 44.3394 75.3394 44.547C75.5592 44.7542 75.7264 44.9811 75.8361 45.231C75.9466 45.4841 75.9993 45.7601 75.9993 46.0661V48.6512C75.9993 48.7694 75.9993 48.888 76.0033 49.0094C76.0033 49.1284 76.012 49.253 76.0239 49.3811C76.0362 49.5092 76.0607 49.6183 76.0972 49.7101C76.1336 49.799 76.1828 49.8742 76.2442 49.9339C76.3048 49.9932 76.3864 50.0323 76.4842 50.0517C76.586 50.0719 76.7084 50.0719 76.8554 50.0517L76.977 51.2165C76.525 51.3541 76.0813 51.4233 75.6452 51.4233C75.209 51.4233 74.7895 51.3541 74.3859 51.2165C73.9703 51.0682 73.6609 50.8152 73.4534 50.4601C73.2454 50.1011 73.1392 49.6381 73.1392 49.0656V46.0661C73.1392 45.8194 73.1107 45.6055 73.0497 45.4279C72.9927 45.2476 72.9071 45.0994 72.7974 44.9811C72.6872 44.8625 72.5121 44.7803 72.2677 44.7309C72.0229 44.685 71.7092 44.6751 71.3305 44.7048V51.1967H68.6169V37.1077ZM80.913 37.1077H83.6994L86.7794 51.1967H84.0417L83.5529 48.5132H80.913L80.3505 51.1967H77.7106L80.913 37.1077ZM81.2062 46.7371H83.2352L82.2084 41.1925L81.2062 46.7371Z" fill="white"/>
<path d="M19.2559 32.9643H20.1567V34.0057L21.0579 32.9643H21.8739L21.0642 33.8685L21.9524 35.6668H20.9858L20.4835 34.4114L20.1567 34.7894V35.6668H19.2559V32.9643Z" fill="white"/>
<path d="M27.1002 35.3432V35.6666H26.1994V32.9641H27.1002L27.0935 34.2634L27.8184 33.3093V32.9641H28.7192V35.6666H27.8184V34.4057L27.6746 34.6085L27.1002 35.3432Z" fill="white"/>
<path d="M33.3206 35.6668V32.9643H34.2219V33.9346H34.9333V32.9643H35.8341V35.6668H34.9333V34.5154H34.2219V35.6668H33.3206Z" fill="white"/>
<path d="M42.9134 34.3125C42.9134 34.7843 42.8045 35.1365 42.5858 35.3706C42.3683 35.6047 42.0419 35.7213 41.6077 35.7213C41.1704 35.7213 40.8428 35.6047 40.6241 35.3706C40.4055 35.1365 40.2953 34.7843 40.2953 34.3125C40.2953 33.844 40.4055 33.4929 40.6241 33.2592C40.8428 33.0263 41.1704 32.9093 41.6077 32.9093C42.0419 32.9093 42.3683 33.0263 42.5858 33.2592C42.8045 33.4929 42.9134 33.844 42.9134 34.3125ZM41.9865 34.3125C41.9865 34.1425 41.9789 33.9994 41.9635 33.8824C41.948 33.7653 41.9278 33.6768 41.9017 33.6163C41.8427 33.4957 41.7448 33.4356 41.6077 33.4356C41.5392 33.4356 41.4802 33.449 41.4315 33.4775C41.3823 33.5052 41.3431 33.5479 41.3138 33.6052C41.2845 33.6629 41.2619 33.7507 41.2465 33.8685C41.2298 33.9864 41.2223 34.1346 41.2223 34.3125C41.2223 34.4798 41.229 34.6194 41.2421 34.7336C41.2552 34.8479 41.275 34.9377 41.3007 35.0033C41.3237 35.0662 41.361 35.1136 41.4128 35.1468C41.4639 35.1785 41.5293 35.1951 41.6077 35.1951C41.6794 35.1951 41.7405 35.1785 41.7896 35.1468C41.8383 35.1136 41.8751 35.0662 41.9017 35.0033C41.931 34.94 41.9528 34.8507 41.9655 34.7356C41.9797 34.6206 41.9865 34.4798 41.9865 34.3125" fill="white"/>
<path d="M47.0959 32.9643H49.5309V33.5617H48.7541V35.6668H47.8533V33.5617H47.0959V32.9643Z" fill="white"/>
<path d="M56.3078 34.4386H54.6167V34.5924C54.6167 34.713 54.6266 34.8142 54.6472 34.8945C54.6666 34.976 54.6983 35.0361 54.7411 35.0744C54.7803 35.1155 54.8247 35.1468 54.8746 35.1685C54.9245 35.1895 54.9823 35.2005 55.0477 35.2005C55.1847 35.2005 55.2913 35.1622 55.3678 35.0843C55.4438 35.0076 55.4913 34.891 55.5112 34.7348L56.3078 34.7787C56.2357 35.0938 56.0931 35.3294 55.8811 35.4864C55.668 35.643 55.384 35.7217 55.0283 35.7217C54.8092 35.7217 54.6167 35.6912 54.4511 35.6292C54.2851 35.5679 54.1469 35.475 54.0359 35.3488C53.9215 35.2255 53.8355 35.0811 53.7769 34.9163C53.719 34.751 53.6897 34.5648 53.6897 34.3564C53.6897 34.1207 53.7202 33.9131 53.7824 33.7352C53.8434 33.5561 53.9345 33.4055 54.0554 33.2821C54.1762 33.1587 54.3168 33.0654 54.4776 33.0033C54.6373 32.9405 54.8191 32.9092 55.0215 32.9092C55.3872 32.9092 55.6942 33.0192 55.9422 33.2382C56.063 33.3477 56.1545 33.5023 56.2151 33.7024C56.2773 33.9025 56.3078 34.1484 56.3078 34.4386ZM55.4589 34.0057C55.462 33.9891 55.4644 33.9748 55.4644 33.961C55.4656 33.9479 55.4656 33.9369 55.4656 33.9286C55.4656 33.7562 55.4296 33.6265 55.3586 33.5387C55.2869 33.4521 55.1816 33.4082 55.0413 33.4082C54.9043 33.4082 54.8005 33.4577 54.732 33.5573C54.6626 33.6557 54.6266 33.8052 54.6234 34.0057H55.4589Z" fill="white"/>
<path d="M61.6384 33.8193L60.7832 33.7537C60.8057 33.6165 60.8517 33.4959 60.9214 33.3919C60.9899 33.2875 61.0834 33.2001 61.2011 33.1286C61.3183 33.0546 61.451 32.9989 61.598 32.9605C61.7462 32.923 61.9094 32.904 62.0888 32.904C62.3891 32.904 62.6307 32.9534 62.8134 33.0519C62.9049 33.1013 62.9801 33.1531 63.0376 33.2088C63.0966 33.2658 63.1366 33.3259 63.1596 33.3919C63.1822 33.4548 63.1996 33.537 63.2131 33.6367C63.2245 33.7371 63.2313 33.8549 63.2313 33.9893V35.0692C63.2313 35.236 63.2356 35.3697 63.2455 35.4681C63.2543 35.5678 63.2673 35.6338 63.2836 35.6666H62.4545C62.4382 35.631 62.4259 35.578 62.4196 35.5077C62.4121 35.4373 62.4089 35.3515 62.4089 35.2499C62.3107 35.4092 62.189 35.527 62.0421 35.6045C61.8951 35.6828 61.7232 35.7216 61.5275 35.7216C61.3999 35.7216 61.2859 35.7057 61.1836 35.6757C61.0826 35.6449 60.9919 35.5982 60.9135 35.5349C60.8354 35.4721 60.7764 35.3942 60.7376 35.3013C60.6984 35.2091 60.679 35.102 60.679 34.9814C60.679 34.8307 60.7083 34.6975 60.7669 34.582C60.8255 34.4662 60.9135 34.3673 61.0311 34.2855C61.152 34.2033 61.3207 34.1372 61.5374 34.0878C61.7537 34.0388 62.0203 34.006 62.3368 33.9893V33.8854C62.3368 33.7944 62.3305 33.7189 62.3198 33.6576C62.3075 33.5967 62.2912 33.5477 62.2718 33.5125C62.2489 33.4765 62.216 33.45 62.1736 33.4338C62.1312 33.4164 62.0793 33.4081 62.0171 33.4081C61.9026 33.4081 61.8135 33.4421 61.7493 33.5105C61.6852 33.5789 61.6483 33.6821 61.6384 33.8193ZM62.3368 34.3729C62.2065 34.3867 62.0944 34.4057 61.9997 34.4302C61.9062 34.4551 61.8309 34.4852 61.7755 34.5212C61.72 34.5567 61.6776 34.6042 61.6491 34.6643C61.6202 34.7248 61.6059 34.7979 61.6059 34.8825C61.6059 34.9976 61.6317 35.0838 61.6832 35.1415C61.7331 35.1989 61.8084 35.2281 61.9062 35.2281C61.9613 35.2281 62.014 35.2143 62.0627 35.1878C62.1118 35.1621 62.1574 35.1237 62.1997 35.0747C62.2457 35.0225 62.2806 34.9494 62.3031 34.8553C62.3261 34.7612 62.3368 34.6441 62.3368 34.5045V34.3729Z" fill="white"/>
<path d="M67.5228 32.9643H69.9579V33.5617H69.1811V35.6668H68.2802V33.5617H67.5228V32.9643Z" fill="white"/>
<path d="M74.2026 32.9643H75.0317V33.3644C75.1197 33.2193 75.2242 33.1094 75.3462 33.0362C75.4667 32.9623 75.6061 32.9255 75.7626 32.9255C75.91 32.9255 76.0446 32.954 76.1686 33.0109C76.2914 33.0675 76.4027 33.1505 76.5006 33.2604C76.5984 33.3696 76.6725 33.5087 76.7212 33.676C76.7704 33.844 76.7945 34.0413 76.7945 34.2687C76.7945 34.5075 76.7704 34.7155 76.7212 34.8946C76.6733 35.0729 76.602 35.2228 76.5069 35.3434C76.4123 35.464 76.297 35.5541 76.1611 35.6146C76.0252 35.6747 75.8707 35.7051 75.6976 35.7051C75.5736 35.7051 75.4603 35.685 75.3593 35.6439C75.2567 35.6035 75.1656 35.543 75.084 35.464V36.5821H74.2026V32.9643ZM75.084 34.5593C75.084 34.6882 75.0903 34.795 75.1034 34.8792C75.1169 34.9642 75.1359 35.0255 75.1624 35.0638C75.185 35.1022 75.2219 35.1322 75.273 35.1524C75.3245 35.1733 75.3874 35.184 75.4627 35.184C75.5312 35.184 75.5911 35.1706 75.6434 35.1441C75.6945 35.1168 75.7368 35.0773 75.7693 35.0255C75.8022 34.9733 75.8272 34.8855 75.8434 34.7602C75.8596 34.6364 75.8672 34.4743 75.8672 34.2742C75.8672 34.107 75.8596 33.9674 75.8446 33.8547C75.8291 33.7424 75.8085 33.6578 75.7824 33.6001C75.7531 33.5396 75.7139 33.4957 75.6647 33.4668C75.616 33.4384 75.5574 33.4245 75.4889 33.4245C75.433 33.4245 75.3811 33.4328 75.3332 33.4502C75.2841 33.4684 75.2405 33.4957 75.2013 33.534C75.1624 33.5728 75.1331 33.6349 75.1133 33.7199C75.0935 33.8053 75.084 33.9152 75.084 34.0496V34.5593Z" fill="white"/>
<path d="M106.683 37.1376V38.9726H103.113V51.2263H100.4V37.1376H106.683ZM111.205 46.767V51.2263H108.491V37.1376H110.838C111.632 37.1376 112.358 37.2099 113.014 37.3578C113.67 37.5025 114.248 37.7196 114.749 38.0059C115.25 38.3016 115.629 38.7654 115.886 39.4C116.143 40.0315 116.277 40.8373 116.289 41.8139C116.314 42.7316 116.208 43.5078 115.976 44.1424C115.739 44.7774 115.373 45.2772 114.872 45.6421C113.869 46.372 112.647 46.7472 111.205 46.767V46.767ZM111.205 45.1289C111.51 45.1289 111.796 45.0731 112.065 44.9644C112.329 44.8529 112.574 44.6853 112.794 44.4583C113.014 44.2412 113.177 43.9221 113.287 43.4979C113.392 43.0768 113.442 42.5541 113.429 41.9325C113.417 41.2912 113.356 40.7582 113.242 40.3375C113.124 39.9196 112.953 39.6139 112.72 39.4265C112.488 39.2387 112.248 39.1007 111.999 39.0153C111.751 38.9331 111.486 38.9034 111.205 38.9331V45.1289ZM124.894 37.1376V38.9726H121.056V42.9779H123.94V44.8529H121.056V49.411H125.359V51.2263H118.343V37.1376H124.894ZM122.278 35.3619C122.278 34.6316 122.62 34.2168 123.305 34.1183C123.476 34.0792 123.672 34.0792 123.892 34.1183C124.576 34.2168 124.918 34.6316 124.918 35.3619C124.918 36.0918 124.576 36.5061 123.892 36.6046C123.672 36.6441 123.476 36.6441 123.305 36.6046C122.62 36.5061 122.278 36.0918 122.278 35.3619ZM118.465 35.3619C118.465 34.9965 118.551 34.7102 118.718 34.5031C118.889 34.2959 119.137 34.1678 119.467 34.1183C119.577 34.0986 119.683 34.0887 119.781 34.0887C119.883 34.0887 119.981 34.0986 120.078 34.1183C120.408 34.1678 120.657 34.2959 120.828 34.5031C120.995 34.7102 121.081 34.9965 121.081 35.3619C121.081 35.7268 120.995 36.0127 120.828 36.2199C120.657 36.4274 120.408 36.5552 120.078 36.6046C119.981 36.6244 119.883 36.6342 119.781 36.6342C119.683 36.6342 119.577 36.6244 119.467 36.6046C119.137 36.5552 118.889 36.4274 118.718 36.2199C118.551 36.0127 118.465 35.7268 118.465 35.3619ZM126.654 45.9972L129.001 45.7801C128.989 46.2538 128.997 46.7077 129.021 47.1383C129.049 47.5728 129.098 47.9805 129.172 48.3652C129.245 48.7499 129.367 49.0393 129.535 49.2366C129.705 49.4308 129.917 49.5292 130.174 49.5292C130.37 49.5292 130.537 49.4699 130.671 49.3521C130.809 49.2335 130.919 49.0559 131.005 48.8191C131.03 48.7203 131.054 48.536 131.074 48.2695C131.099 48.003 131.115 47.6547 131.127 47.2205C131.127 46.372 131.078 45.8196 130.98 45.5634C130.846 45.2179 130.614 44.968 130.284 44.8098C129.954 44.6556 129.526 44.5963 129.001 44.6354V42.9779C129.453 42.9878 129.832 42.9451 130.133 42.8467C130.439 42.7514 130.663 42.6035 130.809 42.4062C130.956 42.2184 131.062 41.9685 131.123 41.6526C131.185 41.3402 131.201 40.9654 131.176 40.5312C131.164 40.2845 131.139 40.0678 131.111 39.8804C131.078 39.6926 131.041 39.5349 131.005 39.4067C130.956 39.2782 130.883 39.1798 130.785 39.1142C130.687 39.045 130.565 39.0121 130.418 39.0121C130.223 39.0023 130.06 39.0517 129.926 39.1569C129.795 39.2652 129.697 39.4265 129.636 39.6436C129.563 39.8705 129.489 40.1465 129.416 40.4755C129.343 40.8076 129.27 41.1923 129.196 41.6364L126.947 41.3208C127.058 39.8508 127.42 38.752 128.031 38.0221C128.642 37.2953 129.502 36.9403 130.614 36.96C130.944 36.96 131.25 36.996 131.539 37.0648C131.824 37.1376 132.093 37.2459 132.35 37.3938C132.606 37.5421 132.834 37.7164 133.03 37.9169C133.225 38.1178 133.388 38.351 133.523 38.6171C133.657 38.8836 133.763 39.1766 133.837 39.4925C133.91 39.8112 133.951 40.1564 133.963 40.5312C133.987 40.7784 133.971 41.0544 133.91 41.3604C133.853 41.666 133.755 42.0017 133.621 42.3667C133.486 42.7316 133.254 43.0373 132.932 43.2773C132.606 43.5208 132.191 43.6984 131.69 43.8071C132.521 43.9945 133.128 44.3792 133.507 44.9549C133.89 45.5334 134.049 46.3032 133.987 47.2605C133.963 47.7432 133.885 48.2142 133.751 48.6677C133.616 49.1247 133.425 49.5688 133.181 50.0029C132.924 50.4371 132.549 50.7724 132.06 51.0056C131.567 51.2429 130.956 51.3741 130.223 51.4038C129.722 51.4236 129.257 51.3512 128.825 51.1832C128.397 51.0191 127.998 50.7625 127.632 50.4173C127.253 50.0721 126.984 49.5292 126.821 48.793C126.662 48.0524 126.605 47.1221 126.654 45.9972" fill="white"/>
</g>
</g>
<defs>
<filter id="filter0_d" x="-44" y="-38" width="307" height="368" filterUnits="userSpaceOnUse" color-interpolation-filters="sRGB">
<feFlood flood-opacity="0" result="BackgroundImageFix"/>
<feColorMatrix in="SourceAlpha" type="matrix" values="0 0 0 0 0 0 0 0 0 0 0 0 0 0 0 0 0 0 127 0"/>
<feOffset dy="6"/>
<feGaussianBlur stdDeviation="22"/>
<feColorMatrix type="matrix" values="0 0 0 0 0.00416666 0 0 0 0 0.6415 0 0 0 0 1 0 0 0 0.25 0"/>
<feBlend mode="normal" in2="BackgroundImageFix" result="effect1_dropShadow"/>
<feBlend mode="normal" in="SourceGraphic" in2="effect1_dropShadow" result="shape"/>
</filter>
<clipPath id="clip0">
<rect width="219" height="280" rx="10" fill="white"/>
</clipPath>
</defs>
</svg>
