<svg width="219" height="280" viewBox="0 0 219 280" fill="none" xmlns="http://www.w3.org/2000/svg">
<g clip-path="url(#clip0)">
<rect width="219" height="280" rx="10" fill="#FD9727"/>
<path d="M13 195C-6.2 194.2 -20.3333 173.333 -25 163L-48 -33H229V57C196.333 67.3333 126 91 106 103C81 118 97 133 94 163C91 193 37 196 13 195Z" fill="#FB7C23"/>
<path d="M44 174C23 175 12 166 0 156V0H195C180 12.6667 141.8 41 109 53C68 68 76 115 76 129C76 143 65 173 44 174Z" fill="#F77021"/>
<path d="M118 220C52 220 40 264 36 282H233V121C224.333 127.333 204.4 148.2 194 181C181 222 184 220 118 220Z" fill="#FD7C23"/>
<g clip-path="url(#clip1)">
<path d="M143.877 191.874L136.252 186.229C137.897 186.084 139.476 185.264 140.533 183.836C143.504 179.823 140.506 174.151 135.548 174.306C135.135 174.319 134.811 174.663 134.824 175.076C134.837 175.488 135.182 175.812 135.594 175.799C139.305 175.684 141.564 179.933 139.332 182.947C137.923 184.851 135.281 185.314 133.315 184.054L129.467 181.206L132.128 177.612C134.089 174.964 133.529 171.214 130.881 169.253C128.232 167.292 124.482 167.852 122.521 170.5C121.464 171.929 121.14 173.677 121.482 175.293L113.857 169.648C112.202 168.422 109.858 168.772 108.632 170.427L106.341 173.522C105.229 175.024 105.414 177.094 106.695 178.379L95.1674 193.949C93.9418 195.605 94.2915 197.948 95.9468 199.174L120.863 217.622C122.519 218.847 124.862 218.498 126.088 216.843L135.652 203.925C135.898 203.593 135.828 203.125 135.496 202.88C135.165 202.634 134.697 202.704 134.451 203.036L124.887 215.954C124.152 216.947 122.746 217.156 121.752 216.421L107.193 205.641L120.029 188.304L124.232 191.416L112.995 206.592C112.75 206.924 112.82 207.392 113.151 207.637C113.483 207.883 113.951 207.813 114.196 207.481L125.433 192.305L132.112 197.25C132.444 197.496 132.911 197.426 133.157 197.094C133.402 196.763 133.333 196.295 133.001 196.049L129.023 193.104L133.982 186.407L142.988 193.075C143.981 193.81 144.191 195.217 143.456 196.21L141.164 199.305C140.429 200.298 139.023 200.508 138.029 199.772L136.866 198.911C136.535 198.666 136.067 198.735 135.821 199.067C135.576 199.398 135.645 199.866 135.977 200.112L137.14 200.973C138.796 202.199 141.139 201.849 142.365 200.194L144.656 197.099C145.882 195.444 145.532 193.1 143.877 191.874ZM123.722 171.389C125.193 169.403 128.005 168.983 129.992 170.454C131.978 171.925 132.398 174.737 130.927 176.723L128.267 180.316L124.419 177.468C122.64 175.955 122.312 173.293 123.722 171.389ZM105.992 204.752L96.8358 197.973C95.8426 197.238 95.6328 195.832 96.3681 194.839L107.871 179.302L118.828 187.415L105.992 204.752ZM127.823 192.215L108.009 177.546C107.016 176.811 106.806 175.404 107.542 174.411L109.833 171.316C110.568 170.323 111.975 170.113 112.968 170.849L121.974 177.517L118.411 182.329C118.165 182.661 118.235 183.129 118.567 183.374C118.898 183.62 119.366 183.55 119.612 183.218L123.175 178.406L132.781 185.518L127.823 192.215Z" fill="#F77021"/>
</g>
<path fill-rule="evenodd" clip-rule="evenodd" d="M87.0569 29.9706C95.0878 29.9706 101.599 36.4693 101.599 44.4851C101.599 52.5017 95.0878 59 87.0569 59C81.753 59 77.1135 56.1658 74.573 51.9323L75.7072 51.7358V52.8038C75.7353 52.8406 75.7623 52.8781 75.7912 52.9137H79.3231V56.2382C80.0952 56.7787 80.9302 57.2686 81.8255 57.6999V52.9137H85.3614V51.7358H90.43V48.592H91.8414L95.7208 51.0099V41.849L91.8414 44.2668H90.43V41.123H88.1894C89.0542 40.1792 89.5819 38.9231 89.5819 37.5435C89.5819 34.6129 87.2003 32.2358 84.2641 32.2358C82.8309 32.2358 81.5304 32.8024 80.5741 33.7232C80.073 33.2409 79.417 32.8257 78.7559 32.5671C81.1093 30.931 83.9706 29.9706 87.0569 29.9706ZM72.9077 41.123L72.9184 41.0792L72.958 41.123H72.9077Z" fill="white"/>
<path d="M20.7988 51.1967V49.8152C20.1266 49.8053 19.5031 49.6871 18.9287 49.4633C18.3543 49.2435 17.829 48.9173 17.352 48.493C16.8632 48.0688 16.5087 47.4773 16.2848 46.7209C16.0646 45.9672 15.9707 45.0499 16.0079 43.9745C16.0689 43.0176 16.2274 42.192 16.4885 41.5013C16.7452 40.8109 17.1076 40.255 17.5719 39.8307C18.0243 39.4164 18.5214 39.1107 19.059 38.9166C19.5969 38.7193 20.1757 38.637 20.7988 38.6667V37.1274H23.5124V38.6667C23.8911 38.6568 24.2658 38.6861 24.6326 38.7588C24.9994 38.8343 25.3576 38.9526 25.7121 39.1206C26.0666 39.2882 26.3927 39.512 26.6858 39.7912C26.9793 40.0711 27.24 40.4127 27.4721 40.8176C27.7043 41.2217 27.8877 41.6891 28.018 42.2181C28.1523 42.7479 28.2299 43.3331 28.2545 43.9745C28.3155 45.0598 28.2383 45.9775 28.022 46.7304C27.8061 47.4804 27.4599 48.0688 26.9833 48.493C26.4945 48.9173 25.9609 49.2435 25.3865 49.4633C24.8077 49.6871 24.1842 49.8053 23.5124 49.8152V51.1967H20.7988ZM20.7988 40.0083C20.5053 40.028 20.249 40.1202 20.0327 40.2878C19.8128 40.4527 19.6377 40.6891 19.5031 40.9948C19.3565 41.3008 19.2424 41.7085 19.1568 42.2181C19.0713 42.7282 19.0142 43.3331 18.9901 44.0338C18.9778 44.7736 19.0063 45.4149 19.0752 45.9578C19.1446 46.5002 19.2468 46.9443 19.381 47.2894C19.5153 47.635 19.7027 47.9011 19.9432 48.0854C20.1836 48.2728 20.4688 48.3748 20.7988 48.3946V40.0083ZM23.5124 40.0083V48.3946C23.8542 48.3748 24.1478 48.2696 24.3882 48.0822C24.6326 47.8944 24.82 47.6251 24.9543 47.2697C25.089 46.9245 25.1868 46.4805 25.2439 45.9412C25.3049 45.3987 25.3211 44.7637 25.2966 44.0338C25.2843 43.3331 25.2395 42.7313 25.1662 42.2252C25.089 41.7219 24.9789 41.3107 24.8323 40.9948C24.6857 40.6891 24.5023 40.4527 24.282 40.2878C24.0622 40.1202 23.8055 40.028 23.5124 40.0083ZM32.3612 37.1076H35.1477L38.228 51.1967H35.4899L35.0015 48.5132H32.3612L31.7991 51.1967H29.1589L32.3612 37.1076ZM32.6548 46.7371H34.6834L33.6566 41.1925L32.6548 46.7371ZM46.7347 37.1076V38.9427H42.7745V42.0999C43.8258 42.1102 44.7017 42.2252 45.3985 42.4455C46.0993 42.6657 46.6245 42.9978 46.9791 43.4419C47.3332 43.8859 47.5903 44.3789 47.7571 44.9214C47.9203 45.4643 47.9936 46.0562 47.9813 46.6975C47.9813 47.2697 47.8957 47.8122 47.729 48.3289C47.5574 48.8418 47.3091 49.3317 46.9791 49.7955C46.6372 50.2593 46.1155 50.608 45.4187 50.8444C44.7179 51.0781 43.8381 51.1967 42.7745 51.1967H40.061V37.1076H46.7347ZM42.7745 49.3811C43.0803 49.4107 43.3651 49.3811 43.6345 49.2953C43.8991 49.2071 44.1435 49.0656 44.3634 48.8683C44.5714 48.6706 44.7302 48.3847 44.8364 48.013C44.9461 47.6382 44.9992 47.1811 44.9992 46.6386C45.0115 46.1151 44.9623 45.6687 44.8562 45.2935C44.7465 44.9214 44.5836 44.6257 44.3634 44.4086C44.1313 44.2018 43.8868 44.0437 43.6262 43.9385C43.3616 43.8297 43.0803 43.7772 42.7745 43.7772V49.3811ZM52.748 46.7371V51.1967H50.0345V37.1076H52.3816C53.1758 37.1076 53.9012 37.18 54.5568 37.3279C55.2128 37.473 55.7915 37.6901 56.2926 37.9759C56.7938 38.2721 57.1725 38.7359 57.4292 39.3705C57.6859 40.0019 57.8205 40.8077 57.8324 41.7844C57.857 42.7017 57.7512 43.4782 57.5187 44.1128C57.2826 44.7475 56.9158 45.2476 56.4147 45.6122C55.4124 46.3425 54.1903 46.7173 52.748 46.7371V46.7371ZM52.748 45.0994C53.0534 45.0994 53.339 45.0432 53.6076 44.9349C53.8726 44.823 54.1167 44.6553 54.3369 44.4284C54.5568 44.2113 54.72 43.8922 54.8297 43.4684C54.9359 43.0473 54.9846 42.5242 54.9727 41.9026C54.96 41.2613 54.8994 40.7287 54.7849 40.3076C54.6673 39.89 54.4958 39.584 54.2636 39.3966C54.0315 39.2092 53.791 39.0712 53.5427 38.9858C53.2939 38.9031 53.0293 38.8739 52.748 38.9031V45.0994ZM59.8369 37.1076H62.55V44.0535L64.9213 40.0083V37.1076H67.6348V51.1967H64.9213V44.0535L62.55 48.217V51.1967H59.8369V37.1076ZM70.6169 37.1076H73.3305V43.0275C73.8561 43.0963 74.2515 43.001 74.5201 42.7444C74.7851 42.4882 74.9194 42.0702 74.9194 41.4882V39.4164C74.9194 38.5777 75.1273 37.9498 75.5469 37.5355C75.9624 37.1211 76.5942 36.9206 77.4372 36.9301C77.6452 36.9301 77.8488 36.94 78.0485 36.9598C78.2477 36.9795 78.4517 37.0092 78.6597 37.0487L78.4149 38.4101C78.2442 38.4002 78.1055 38.42 77.9954 38.4627C77.8892 38.5089 77.8163 38.5777 77.7795 38.6667C77.7426 38.7556 77.7145 38.8573 77.69 38.9759C77.6694 39.0941 77.6571 39.2289 77.6571 39.3768V41.5278C77.6571 42.1687 77.4863 42.6788 77.148 43.0571C76.8058 43.4351 76.3003 43.6886 75.6285 43.8167C75.983 43.8562 76.3003 43.9353 76.5855 44.0567C76.8668 44.1753 77.1195 44.3394 77.3394 44.547C77.5592 44.7542 77.7264 44.9811 77.8361 45.231C77.9466 45.4841 77.9993 45.7601 77.9993 46.0661V48.6512C77.9993 48.7694 77.9993 48.888 78.0033 49.0094C78.0033 49.1284 78.012 49.253 78.0239 49.3811C78.0362 49.5092 78.0607 49.6183 78.0972 49.71C78.1336 49.799 78.1828 49.8741 78.2442 49.9338C78.3048 49.9932 78.3864 50.0323 78.4842 50.0517C78.586 50.0718 78.7084 50.0718 78.8554 50.0517L78.977 51.2165C78.525 51.3541 78.0813 51.4233 77.6452 51.4233C77.209 51.4233 76.7895 51.3541 76.3859 51.2165C75.9703 51.0682 75.6609 50.8152 75.4534 50.4601C75.2454 50.1011 75.1392 49.6381 75.1392 49.0656V46.0661C75.1392 45.8194 75.1107 45.6055 75.0497 45.4279C74.9927 45.2476 74.9071 45.0994 74.7974 44.9811C74.6872 44.8625 74.5121 44.7803 74.2677 44.7308C74.0229 44.685 73.7092 44.6751 73.3305 44.7048V51.1967H70.6169V37.1076ZM82.913 37.1076H85.6994L88.7794 51.1967H86.0417L85.5529 48.5132H82.913L82.3505 51.1967H79.7106L82.913 37.1076ZM83.2062 46.7371H85.2352L84.2084 41.1925L83.2062 46.7371Z" fill="white"/>
<path d="M21.2559 32.9642H22.1567V34.0057L23.0579 32.9642H23.874L23.0643 33.8685L23.9524 35.6668H22.9858L22.4835 34.4114L22.1567 34.7894V35.6668H21.2559V32.9642Z" fill="white"/>
<path d="M29.1002 35.3432V35.6666H28.1994V32.9641H29.1002L29.0935 34.2634L29.8184 33.3093V32.9641H30.7193V35.6666H29.8184V34.4057L29.6746 34.6085L29.1002 35.3432Z" fill="white"/>
<path d="M35.3207 35.6668V32.9642H36.2219V33.9345H36.9333V32.9642H37.8342V35.6668H36.9333V34.5154H36.2219V35.6668H35.3207Z" fill="white"/>
<path d="M44.9134 34.3126C44.9134 34.7843 44.8045 35.1366 44.5858 35.3706C44.3683 35.6047 44.0419 35.7213 43.6078 35.7213C43.1704 35.7213 42.8428 35.6047 42.6242 35.3706C42.4055 35.1366 42.2954 34.7843 42.2954 34.3126C42.2954 33.844 42.4055 33.4929 42.6242 33.2592C42.8428 33.0263 43.1704 32.9093 43.6078 32.9093C44.0419 32.9093 44.3683 33.0263 44.5858 33.2592C44.8045 33.4929 44.9134 33.844 44.9134 34.3126ZM43.9865 34.3126C43.9865 34.1425 43.9789 33.9994 43.9635 33.8824C43.948 33.7653 43.9278 33.6768 43.9017 33.6163C43.8427 33.4957 43.7448 33.4356 43.6078 33.4356C43.5392 33.4356 43.4802 33.449 43.4315 33.4775C43.3824 33.5052 43.3431 33.5479 43.3138 33.6052C43.2845 33.6629 43.2619 33.7507 43.2465 33.8685C43.2298 33.9864 43.2223 34.1346 43.2223 34.3126C43.2223 34.4798 43.2291 34.6194 43.2421 34.7337C43.2552 34.8479 43.275 34.9377 43.3008 35.0033C43.3237 35.0662 43.361 35.1136 43.4129 35.1468C43.464 35.1785 43.5293 35.1951 43.6078 35.1951C43.6795 35.1951 43.7405 35.1785 43.7896 35.1468C43.8383 35.1136 43.8752 35.0662 43.9017 35.0033C43.931 34.94 43.9528 34.8507 43.9655 34.7356C43.9797 34.6206 43.9865 34.4798 43.9865 34.3126" fill="white"/>
<path d="M49.0959 32.9642H51.5309V33.5617H50.7541V35.6668H49.8533V33.5617H49.0959V32.9642Z" fill="white"/>
<path d="M58.3078 34.4386H56.6167V34.5924C56.6167 34.713 56.6266 34.8142 56.6472 34.8945C56.6666 34.976 56.6983 35.0361 56.7411 35.0744C56.7803 35.1155 56.8247 35.1468 56.8746 35.1685C56.9245 35.1895 56.9823 35.2005 57.0477 35.2005C57.1847 35.2005 57.2913 35.1622 57.3678 35.0843C57.4438 35.0076 57.4914 34.891 57.5112 34.7348L58.3078 34.7787C58.2357 35.0938 58.0931 35.3294 57.8812 35.4864C57.668 35.643 57.384 35.7217 57.0283 35.7217C56.8092 35.7217 56.6167 35.6912 56.4511 35.6292C56.2851 35.5679 56.1469 35.475 56.036 35.3488C55.9215 35.2255 55.8355 35.0811 55.7769 34.9163C55.719 34.751 55.6897 34.5648 55.6897 34.3564C55.6897 34.1207 55.7202 33.9131 55.7824 33.7352C55.8434 33.5561 55.9345 33.4055 56.0554 33.2821C56.1762 33.1587 56.3168 33.0654 56.4776 33.0033C56.6373 32.9405 56.8191 32.9092 57.0215 32.9092C57.3872 32.9092 57.6942 33.0192 57.9422 33.2382C58.063 33.3477 58.1545 33.5023 58.2151 33.7024C58.2773 33.9025 58.3078 34.1484 58.3078 34.4386ZM57.4589 34.0057C57.462 33.9891 57.4644 33.9748 57.4644 33.961C57.4656 33.9479 57.4656 33.9369 57.4656 33.9286C57.4656 33.7562 57.4296 33.6265 57.3586 33.5387C57.2869 33.4521 57.1816 33.4082 57.0413 33.4082C56.9043 33.4082 56.8005 33.4577 56.732 33.5573C56.6626 33.6557 56.6266 33.8052 56.6234 34.0057H57.4589Z" fill="white"/>
<path d="M63.6384 33.8193L62.7831 33.7537C62.8057 33.6165 62.8517 33.4959 62.9214 33.3919C62.9899 33.2875 63.0834 33.2002 63.2011 33.1286C63.3183 33.0547 63.451 32.9989 63.598 32.9606C63.7462 32.923 63.9094 32.904 64.0888 32.904C64.3891 32.904 64.6307 32.9534 64.8133 33.0519C64.9049 33.1013 64.9801 33.1531 65.0376 33.2089C65.0966 33.2658 65.1366 33.3259 65.1596 33.3919C65.1821 33.4548 65.1996 33.537 65.213 33.6367C65.2245 33.7371 65.2313 33.8549 65.2313 33.9894V35.0692C65.2313 35.236 65.2356 35.3697 65.2455 35.4681C65.2542 35.5678 65.2673 35.6338 65.2836 35.6666H64.4544C64.4382 35.631 64.4259 35.5781 64.4196 35.5077C64.4121 35.4373 64.4089 35.3515 64.4089 35.2499C64.3106 35.4092 64.189 35.5271 64.0421 35.6046C63.8951 35.6828 63.7232 35.7216 63.5275 35.7216C63.3999 35.7216 63.2858 35.7058 63.1836 35.6757C63.0826 35.6449 62.9919 35.5982 62.9135 35.535C62.8354 35.4721 62.7764 35.3942 62.7376 35.3013C62.6984 35.2092 62.679 35.102 62.679 34.9814C62.679 34.8308 62.7083 34.6975 62.7669 34.5821C62.8255 34.4662 62.9135 34.3674 63.0311 34.2855C63.1519 34.2033 63.3207 34.1372 63.5374 34.0878C63.7537 34.0388 64.0203 34.006 64.3368 33.9894V33.8854C64.3368 33.7944 64.3305 33.7189 64.3198 33.6576C64.3075 33.5967 64.2912 33.5477 64.2718 33.5125C64.2488 33.4765 64.216 33.4501 64.1736 33.4338C64.1312 33.4164 64.0793 33.4081 64.0171 33.4081C63.9026 33.4081 63.8135 33.4421 63.7493 33.5105C63.6851 33.579 63.6483 33.6821 63.6384 33.8193ZM64.3368 34.3729C64.2065 34.3867 64.0944 34.4057 63.9997 34.4302C63.9062 34.4551 63.8309 34.4852 63.7755 34.5212C63.72 34.5568 63.6776 34.6042 63.6491 34.6643C63.6202 34.7248 63.6059 34.7979 63.6059 34.8826C63.6059 34.9976 63.6317 35.0838 63.6832 35.1415C63.7331 35.1989 63.8083 35.2281 63.9062 35.2281C63.9613 35.2281 64.0139 35.2143 64.0627 35.1878C64.1118 35.1621 64.1573 35.1238 64.1997 35.0747C64.2457 35.0225 64.2805 34.9494 64.3031 34.8553C64.3261 34.7612 64.3368 34.6441 64.3368 34.5046V34.3729Z" fill="white"/>
<path d="M69.5228 32.9642H71.9579V33.5617H71.1811V35.6668H70.2802V33.5617H69.5228V32.9642Z" fill="white"/>
<path d="M76.2026 32.9643H77.0317V33.3644C77.1197 33.2193 77.2242 33.1094 77.3462 33.0362C77.4667 32.9623 77.6061 32.9255 77.7626 32.9255C77.9099 32.9255 78.0446 32.954 78.1686 33.0109C78.2914 33.0675 78.4027 33.1505 78.5006 33.2604C78.5984 33.3695 78.6725 33.5087 78.7212 33.676C78.7704 33.844 78.7945 34.0413 78.7945 34.2687C78.7945 34.5075 78.7704 34.7155 78.7212 34.8946C78.6733 35.0729 78.602 35.2227 78.5069 35.3433C78.4122 35.4639 78.297 35.5541 78.1611 35.6146C78.0252 35.6747 77.8707 35.7051 77.6976 35.7051C77.5736 35.7051 77.4603 35.685 77.3593 35.6438C77.2567 35.6035 77.1656 35.543 77.084 35.4639V36.5821H76.2026V32.9643ZM77.084 34.5593C77.084 34.6882 77.0903 34.7949 77.1034 34.8792C77.1169 34.9642 77.1359 35.0254 77.1624 35.0638C77.185 35.1022 77.2219 35.1322 77.273 35.1524C77.3245 35.1733 77.3874 35.184 77.4627 35.184C77.5312 35.184 77.5911 35.1706 77.6433 35.1441C77.6944 35.1168 77.7368 35.0772 77.7693 35.0254C77.8022 34.9733 77.8272 34.8855 77.8434 34.7601C77.8596 34.6364 77.8672 34.4743 77.8672 34.2742C77.8672 34.107 77.8596 33.9674 77.8446 33.8547C77.8291 33.7424 77.8085 33.6578 77.7824 33.6001C77.7531 33.5396 77.7139 33.4957 77.6647 33.4668C77.616 33.4383 77.5574 33.4245 77.4888 33.4245C77.433 33.4245 77.3811 33.4328 77.3332 33.4502C77.284 33.4684 77.2405 33.4957 77.2013 33.534C77.1624 33.5728 77.1331 33.6349 77.1133 33.7199C77.0935 33.8053 77.084 33.9152 77.084 34.0496V34.5593Z" fill="white"/>
<path d="M108.683 37.1375V38.9725H105.113V51.2262H102.4V37.1375H108.683ZM113.205 46.767V51.2262H110.491V37.1375H112.838C113.632 37.1375 114.358 37.2099 115.014 37.3578C115.67 37.5025 116.248 37.7195 116.749 38.0058C117.25 38.3016 117.629 38.7654 117.886 39.4C118.143 40.0314 118.277 40.8372 118.289 41.8138C118.314 42.7316 118.208 43.5077 117.976 44.1423C117.739 44.7773 117.373 45.2771 116.872 45.6421C115.869 46.372 114.647 46.7472 113.205 46.767V46.767ZM113.205 45.1288C113.51 45.1288 113.796 45.0731 114.065 44.9644C114.329 44.8528 114.574 44.6852 114.794 44.4582C115.014 44.2412 115.177 43.9221 115.287 43.4978C115.392 43.0767 115.442 42.554 115.429 41.9325C115.417 41.2911 115.356 40.7581 115.242 40.3374C115.124 39.9195 114.953 39.6139 114.72 39.4265C114.488 39.2386 114.248 39.1007 113.999 39.0152C113.751 38.933 113.486 38.9033 113.205 38.933V45.1288ZM126.894 37.1375V38.9725H123.056V42.9779H125.94V44.8528H123.056V49.411H127.359V51.2262H120.343V37.1375H126.894ZM124.278 35.3618C124.278 34.6315 124.62 34.2167 125.305 34.1183C125.476 34.0791 125.672 34.0791 125.892 34.1183C126.576 34.2167 126.918 34.6315 126.918 35.3618C126.918 36.0917 126.576 36.5061 125.892 36.6045C125.672 36.6441 125.476 36.6441 125.305 36.6045C124.62 36.5061 124.278 36.0917 124.278 35.3618ZM120.465 35.3618C120.465 34.9965 120.551 34.7102 120.718 34.503C120.889 34.2958 121.137 34.1677 121.467 34.1183C121.577 34.0985 121.683 34.0886 121.781 34.0886C121.883 34.0886 121.981 34.0985 122.078 34.1183C122.408 34.1677 122.657 34.2958 122.828 34.503C122.995 34.7102 123.081 34.9965 123.081 35.3618C123.081 35.7268 122.995 36.0126 122.828 36.2198C122.657 36.4274 122.408 36.5551 122.078 36.6045C121.981 36.6243 121.883 36.6342 121.781 36.6342C121.683 36.6342 121.577 36.6243 121.467 36.6045C121.137 36.5551 120.889 36.4274 120.718 36.2198C120.551 36.0126 120.465 35.7268 120.465 35.3618ZM128.654 45.9971L131.001 45.78C130.989 46.2537 130.997 46.7076 131.021 47.1382C131.049 47.5728 131.098 47.9804 131.172 48.3651C131.245 48.7499 131.367 49.0393 131.535 49.2366C131.705 49.4307 131.917 49.5292 132.174 49.5292C132.37 49.5292 132.537 49.4699 132.671 49.352C132.809 49.2334 132.919 49.0559 133.005 48.8191C133.03 48.7202 133.054 48.5359 133.074 48.2695C133.099 48.003 133.115 47.6546 133.127 47.2205C133.127 46.372 133.078 45.8196 132.98 45.5634C132.846 45.2178 132.614 44.9679 132.284 44.8098C131.954 44.6555 131.526 44.5962 131.001 44.6354V42.9779C131.453 42.9878 131.832 42.9451 132.133 42.8466C132.439 42.7513 132.663 42.6034 132.809 42.4061C132.956 42.2183 133.062 41.9684 133.123 41.6525C133.184 41.3402 133.201 40.9653 133.176 40.5312C133.164 40.2845 133.139 40.0678 133.111 39.8804C133.078 39.6926 133.041 39.5348 133.005 39.4067C132.956 39.2782 132.883 39.1797 132.785 39.1141C132.687 39.0449 132.565 39.0121 132.418 39.0121C132.223 39.0022 132.06 39.0516 131.926 39.1568C131.795 39.2651 131.697 39.4265 131.636 39.6435C131.563 39.8705 131.489 40.1465 131.416 40.4754C131.343 40.8076 131.27 41.1923 131.196 41.6363L128.947 41.3208C129.058 39.8507 129.42 38.7519 130.031 38.022C130.642 37.2953 131.502 36.9402 132.614 36.96C132.944 36.96 133.25 36.996 133.539 37.0648C133.824 37.1375 134.093 37.2459 134.35 37.3937C134.606 37.542 134.834 37.7164 135.03 37.9168C135.225 38.1177 135.388 38.351 135.523 38.6171C135.657 38.8836 135.763 39.1766 135.837 39.4925C135.91 39.8112 135.951 40.1564 135.963 40.5312C135.987 40.7783 135.971 41.0543 135.91 41.3603C135.853 41.666 135.755 42.0017 135.621 42.3666C135.486 42.7316 135.254 43.0372 134.932 43.2772C134.606 43.5208 134.191 43.6983 133.69 43.807C134.521 43.9944 135.128 44.3792 135.507 44.9549C135.89 45.5333 136.049 46.3032 135.987 47.2604C135.963 47.7432 135.885 48.2141 135.751 48.6676C135.616 49.1247 135.425 49.5687 135.181 50.0029C134.924 50.437 134.549 50.7723 134.06 51.0056C133.567 51.2428 132.956 51.3741 132.223 51.4037C131.722 51.4235 131.257 51.3512 130.825 51.1831C130.397 51.019 129.998 50.7624 129.632 50.4172C129.253 50.0721 128.984 49.5292 128.821 48.793C128.662 48.0524 128.605 47.122 128.654 45.9971" fill="white"/>
</g>
<defs>
<clipPath id="clip0">
<rect width="219" height="280" rx="10" fill="white"/>
</clipPath>
<clipPath id="clip1">
<rect width="44.8384" height="44.8384" fill="white" transform="translate(117.067 159.021) rotate(36.5157)"/>
</clipPath>
</defs>
</svg>
