<svg width="219" height="280" viewBox="0 0 219 280" fill="none" xmlns="http://www.w3.org/2000/svg">
<g filter="url(#filter0_d)">
<g clip-path="url(#clip0)">
<rect width="219" height="280" rx="10" fill="#EC27FD"/>
<path d="M13 195C-6.2 194.2 -20.3333 173.333 -25 163L-48 -33H229V57C196.333 67.3333 126 91 106 103C81 118 97 133 94 163C91 193 37 196 13 195Z" fill="#C323FB"/>
<path d="M39 168C18 169 7 160 -5 150V-6H190C175 6.66667 136.8 35 104 47C63 62 71 109 71 123C71 137 60 167 39 168Z" fill="#B321F7"/>
<path d="M118 224.621C52 224.621 40 265.342 36 282H233V133C224.333 138.861 204.4 158.173 194 188.528C181 226.472 184 224.621 118 224.621Z" fill="#B623FB"/>
<path fill-rule="evenodd" clip-rule="evenodd" d="M90.0569 29.9706C98.0878 29.9706 104.599 36.4693 104.599 44.4851C104.599 52.5017 98.0878 59 90.0569 59C84.753 59 80.1135 56.1658 77.573 51.9323L78.7072 51.7358V52.8038C78.7353 52.8406 78.7622 52.8781 78.7912 52.9137H82.3231V56.2382C83.0952 56.7787 83.9302 57.2686 84.8255 57.6999V52.9137H88.3614V51.7358H93.43V48.592H94.8414L98.7208 51.0099V41.849L94.8414 44.2668H93.43V41.123H91.1894C92.0542 40.1792 92.5819 38.9231 92.5819 37.5435C92.5819 34.6129 90.2003 32.2358 87.2641 32.2358C85.8309 32.2358 84.5304 32.8024 83.5741 33.7232C83.073 33.2409 82.417 32.8257 81.7558 32.5671C84.1093 30.931 86.9706 29.9706 90.0569 29.9706ZM75.9077 41.123L75.9184 41.0792L75.958 41.123H75.9077Z" fill="white"/>
<path d="M23.7988 51.1967V49.8152C23.1266 49.8053 22.5031 49.6871 21.9287 49.4633C21.3543 49.2435 20.829 48.9173 20.352 48.493C19.8632 48.0688 19.5087 47.4773 19.2848 46.7209C19.0646 45.9672 18.9707 45.0499 19.0079 43.9745C19.0689 43.0176 19.2274 42.192 19.4885 41.5013C19.7452 40.8109 20.1076 40.255 20.5719 39.8307C21.0243 39.4164 21.5214 39.1107 22.059 38.9166C22.5969 38.7193 23.1757 38.637 23.7988 38.6667V37.1274H26.5124V38.6667C26.8911 38.6568 27.2658 38.6861 27.6326 38.7588C27.9994 38.8343 28.3576 38.9526 28.7121 39.1206C29.0666 39.2882 29.3927 39.512 29.6858 39.7912C29.9793 40.0711 30.24 40.4127 30.4721 40.8176C30.7043 41.2217 30.8877 41.6891 31.018 42.2181C31.1523 42.7479 31.2299 43.3331 31.2545 43.9745C31.3155 45.0598 31.2383 45.9775 31.022 46.7304C30.8061 47.4804 30.4599 48.0688 29.9833 48.493C29.4945 48.9173 28.9609 49.2435 28.3865 49.4633C27.8077 49.6871 27.1842 49.8053 26.5124 49.8152V51.1967H23.7988ZM23.7988 40.0083C23.5053 40.028 23.249 40.1202 23.0327 40.2878C22.8128 40.4527 22.6377 40.6891 22.5031 40.9948C22.3565 41.3008 22.2424 41.7085 22.1568 42.2181C22.0713 42.7282 22.0142 43.3331 21.9901 44.0338C21.9778 44.7736 22.0063 45.4149 22.0752 45.9578C22.1446 46.5002 22.2468 46.9443 22.381 47.2894C22.5153 47.635 22.7027 47.9011 22.9432 48.0854C23.1836 48.2728 23.4688 48.3748 23.7988 48.3946V40.0083ZM26.5124 40.0083V48.3946C26.8542 48.3748 27.1478 48.2696 27.3882 48.0822C27.6326 47.8944 27.82 47.6251 27.9543 47.2697C28.089 46.9245 28.1868 46.4805 28.2439 45.9412C28.3049 45.3987 28.3211 44.7637 28.2966 44.0338C28.2843 43.3331 28.2395 42.7313 28.1662 42.2252C28.089 41.7219 27.9789 41.3107 27.8323 40.9948C27.6857 40.6891 27.5023 40.4527 27.282 40.2878C27.0622 40.1202 26.8055 40.028 26.5124 40.0083ZM35.3612 37.1076H38.1477L41.228 51.1967H38.4899L38.0015 48.5132H35.3612L34.7991 51.1967H32.1589L35.3612 37.1076ZM35.6548 46.7371H37.6834L36.6566 41.1925L35.6548 46.7371ZM49.7347 37.1076V38.9427H45.7745V42.0999C46.8258 42.1102 47.7017 42.2252 48.3985 42.4455C49.0993 42.6657 49.6245 42.9978 49.9791 43.4419C50.3332 43.8859 50.5903 44.3789 50.7571 44.9214C50.9203 45.4643 50.9936 46.0562 50.9813 46.6975C50.9813 47.2697 50.8957 47.8122 50.729 48.3289C50.5574 48.8418 50.3091 49.3317 49.9791 49.7955C49.6372 50.2593 49.1155 50.608 48.4187 50.8444C47.7179 51.0781 46.8381 51.1967 45.7745 51.1967H43.061V37.1076H49.7347ZM45.7745 49.3811C46.0803 49.4107 46.3651 49.3811 46.6345 49.2953C46.8991 49.2071 47.1435 49.0656 47.3634 48.8683C47.5714 48.6706 47.7302 48.3847 47.8364 48.013C47.9461 47.6382 47.9992 47.1811 47.9992 46.6386C48.0115 46.1151 47.9623 45.6687 47.8562 45.2935C47.7465 44.9214 47.5836 44.6257 47.3634 44.4086C47.1313 44.2018 46.8868 44.0437 46.6262 43.9385C46.3616 43.8297 46.0803 43.7772 45.7745 43.7772V49.3811ZM55.748 46.7371V51.1967H53.0345V37.1076H55.3816C56.1758 37.1076 56.9012 37.18 57.5568 37.3279C58.2128 37.473 58.7915 37.6901 59.2926 37.9759C59.7938 38.2721 60.1725 38.7359 60.4292 39.3705C60.6859 40.0019 60.8205 40.8077 60.8324 41.7844C60.857 42.7017 60.7512 43.4782 60.5187 44.1128C60.2826 44.7475 59.9158 45.2476 59.4147 45.6122C58.4124 46.3425 57.1903 46.7173 55.748 46.7371V46.7371ZM55.748 45.0994C56.0534 45.0994 56.339 45.0432 56.6076 44.9349C56.8726 44.823 57.1167 44.6553 57.3369 44.4284C57.5568 44.2113 57.72 43.8922 57.8297 43.4684C57.9359 43.0473 57.9846 42.5242 57.9727 41.9026C57.96 41.2613 57.8994 40.7287 57.7849 40.3076C57.6673 39.89 57.4958 39.584 57.2636 39.3966C57.0315 39.2092 56.791 39.0712 56.5427 38.9858C56.2939 38.9031 56.0293 38.8739 55.748 38.9031V45.0994ZM62.8369 37.1076H65.55V44.0535L67.9213 40.0083V37.1076H70.6348V51.1967H67.9213V44.0535L65.55 48.217V51.1967H62.8369V37.1076ZM73.6169 37.1076H76.3305V43.0275C76.8561 43.0963 77.2515 43.001 77.5201 42.7444C77.7851 42.4882 77.9194 42.0702 77.9194 41.4882V39.4164C77.9194 38.5777 78.1273 37.9498 78.5469 37.5355C78.9624 37.1211 79.5942 36.9206 80.4372 36.9301C80.6452 36.9301 80.8488 36.94 81.0485 36.9598C81.2477 36.9795 81.4517 37.0092 81.6597 37.0487L81.4149 38.4101C81.2442 38.4002 81.1055 38.42 80.9954 38.4627C80.8892 38.5089 80.8163 38.5777 80.7795 38.6667C80.7426 38.7556 80.7145 38.8573 80.69 38.9759C80.6694 39.0941 80.6571 39.2289 80.6571 39.3768V41.5278C80.6571 42.1687 80.4863 42.6788 80.148 43.0571C79.8058 43.4351 79.3003 43.6886 78.6285 43.8167C78.983 43.8562 79.3003 43.9353 79.5855 44.0567C79.8668 44.1753 80.1195 44.3394 80.3394 44.547C80.5592 44.7542 80.7264 44.9811 80.8361 45.231C80.9466 45.4841 80.9993 45.7601 80.9993 46.0661V48.6512C80.9993 48.7694 80.9993 48.888 81.0033 49.0094C81.0033 49.1284 81.012 49.253 81.0239 49.3811C81.0362 49.5092 81.0607 49.6183 81.0972 49.71C81.1336 49.799 81.1828 49.8741 81.2442 49.9338C81.3048 49.9932 81.3864 50.0323 81.4842 50.0517C81.586 50.0718 81.7084 50.0718 81.8554 50.0517L81.977 51.2165C81.525 51.3541 81.0813 51.4233 80.6452 51.4233C80.209 51.4233 79.7895 51.3541 79.3859 51.2165C78.9703 51.0682 78.6609 50.8152 78.4534 50.4601C78.2454 50.1011 78.1392 49.6381 78.1392 49.0656V46.0661C78.1392 45.8194 78.1107 45.6055 78.0497 45.4279C77.9927 45.2476 77.9071 45.0994 77.7974 44.9811C77.6872 44.8625 77.5121 44.7803 77.2677 44.7308C77.0229 44.685 76.7092 44.6751 76.3305 44.7048V51.1967H73.6169V37.1076ZM85.913 37.1076H88.6994L91.7794 51.1967H89.0417L88.5529 48.5132H85.913L85.3505 51.1967H82.7106L85.913 37.1076ZM86.2062 46.7371H88.2352L87.2084 41.1925L86.2062 46.7371Z" fill="white"/>
<path d="M24.2559 32.9642H25.1567V34.0057L26.0579 32.9642H26.874L26.0643 33.8685L26.9524 35.6668H25.9858L25.4835 34.4114L25.1567 34.7894V35.6668H24.2559V32.9642Z" fill="white"/>
<path d="M32.1002 35.3432V35.6666H31.1994V32.9641H32.1002L32.0935 34.2634L32.8184 33.3093V32.9641H33.7193V35.6666H32.8184V34.4057L32.6746 34.6085L32.1002 35.3432Z" fill="white"/>
<path d="M38.3207 35.6668V32.9642H39.2219V33.9345H39.9333V32.9642H40.8342V35.6668H39.9333V34.5154H39.2219V35.6668H38.3207Z" fill="white"/>
<path d="M47.9134 34.3126C47.9134 34.7843 47.8045 35.1366 47.5858 35.3706C47.3683 35.6047 47.0419 35.7213 46.6078 35.7213C46.1704 35.7213 45.8428 35.6047 45.6241 35.3706C45.4055 35.1366 45.2954 34.7843 45.2954 34.3126C45.2954 33.844 45.4055 33.4929 45.6241 33.2592C45.8428 33.0263 46.1704 32.9093 46.6078 32.9093C47.0419 32.9093 47.3683 33.0263 47.5858 33.2592C47.8045 33.4929 47.9134 33.844 47.9134 34.3126ZM46.9865 34.3126C46.9865 34.1425 46.9789 33.9994 46.9635 33.8824C46.948 33.7653 46.9278 33.6768 46.9017 33.6163C46.8427 33.4957 46.7448 33.4356 46.6078 33.4356C46.5392 33.4356 46.4802 33.449 46.4315 33.4775C46.3824 33.5052 46.3431 33.5479 46.3138 33.6052C46.2845 33.6629 46.2619 33.7507 46.2465 33.8685C46.2298 33.9864 46.2223 34.1346 46.2223 34.3126C46.2223 34.4798 46.229 34.6194 46.2421 34.7337C46.2552 34.8479 46.275 34.9377 46.3007 35.0033C46.3237 35.0662 46.361 35.1136 46.4129 35.1468C46.464 35.1785 46.5293 35.1951 46.6078 35.1951C46.6795 35.1951 46.7405 35.1785 46.7896 35.1468C46.8383 35.1136 46.8751 35.0662 46.9017 35.0033C46.931 34.94 46.9528 34.8507 46.9655 34.7356C46.9797 34.6206 46.9865 34.4798 46.9865 34.3126" fill="white"/>
<path d="M52.0959 32.9642H54.5309V33.5617H53.7541V35.6668H52.8533V33.5617H52.0959V32.9642Z" fill="white"/>
<path d="M61.3078 34.4386H59.6167V34.5924C59.6167 34.713 59.6266 34.8142 59.6472 34.8945C59.6666 34.976 59.6983 35.0361 59.7411 35.0744C59.7803 35.1155 59.8247 35.1468 59.8746 35.1685C59.9245 35.1895 59.9823 35.2005 60.0477 35.2005C60.1847 35.2005 60.2913 35.1622 60.3678 35.0843C60.4438 35.0076 60.4913 34.891 60.5112 34.7348L61.3078 34.7787C61.2357 35.0938 61.0931 35.3294 60.8811 35.4864C60.668 35.643 60.384 35.7217 60.0283 35.7217C59.8092 35.7217 59.6167 35.6912 59.4511 35.6292C59.2851 35.5679 59.1469 35.475 59.0359 35.3488C58.9215 35.2255 58.8355 35.0811 58.7769 34.9163C58.719 34.751 58.6897 34.5648 58.6897 34.3564C58.6897 34.1207 58.7202 33.9131 58.7824 33.7352C58.8434 33.5561 58.9345 33.4055 59.0554 33.2821C59.1762 33.1587 59.3168 33.0654 59.4776 33.0033C59.6373 32.9405 59.8191 32.9092 60.0215 32.9092C60.3872 32.9092 60.6942 33.0192 60.9422 33.2382C61.063 33.3477 61.1545 33.5023 61.2151 33.7024C61.2773 33.9025 61.3078 34.1484 61.3078 34.4386ZM60.4589 34.0057C60.462 33.9891 60.4644 33.9748 60.4644 33.961C60.4656 33.9479 60.4656 33.9369 60.4656 33.9286C60.4656 33.7562 60.4296 33.6265 60.3586 33.5387C60.2869 33.4521 60.1816 33.4082 60.0413 33.4082C59.9043 33.4082 59.8005 33.4577 59.732 33.5573C59.6626 33.6557 59.6266 33.8052 59.6234 34.0057H60.4589Z" fill="white"/>
<path d="M66.6384 33.8193L65.7831 33.7537C65.8057 33.6165 65.8517 33.4959 65.9214 33.3919C65.9899 33.2875 66.0834 33.2002 66.2011 33.1286C66.3183 33.0547 66.451 32.9989 66.598 32.9606C66.7461 32.923 66.9093 32.904 67.0888 32.904C67.3891 32.904 67.6307 32.9534 67.8133 33.0519C67.9048 33.1013 67.9801 33.1531 68.0375 33.2089C68.0966 33.2658 68.1366 33.3259 68.1596 33.3919C68.1821 33.4548 68.1996 33.537 68.213 33.6367C68.2245 33.7371 68.2313 33.8549 68.2313 33.9894V35.0692C68.2313 35.236 68.2356 35.3697 68.2455 35.4681C68.2542 35.5678 68.2673 35.6338 68.2835 35.6666H67.4544C67.4382 35.631 67.4259 35.5781 67.4196 35.5077C67.412 35.4373 67.4089 35.3515 67.4089 35.2499C67.3106 35.4092 67.189 35.5271 67.0421 35.6046C66.8951 35.6828 66.7232 35.7216 66.5275 35.7216C66.3999 35.7216 66.2858 35.7058 66.1836 35.6757C66.0826 35.6449 65.9919 35.5982 65.9135 35.535C65.8354 35.4721 65.7764 35.3942 65.7376 35.3013C65.6984 35.2092 65.6789 35.102 65.6789 34.9814C65.6789 34.8308 65.7083 34.6975 65.7669 34.5821C65.8255 34.4662 65.9135 34.3674 66.0311 34.2855C66.1519 34.2033 66.3207 34.1372 66.5374 34.0878C66.7537 34.0388 67.0203 34.006 67.3368 33.9894V33.8854C67.3368 33.7944 67.3304 33.7189 67.3197 33.6576C67.3075 33.5967 67.2912 33.5477 67.2718 33.5125C67.2488 33.4765 67.216 33.4501 67.1736 33.4338C67.1312 33.4164 67.0793 33.4081 67.0171 33.4081C66.9026 33.4081 66.8135 33.4421 66.7493 33.5105C66.6851 33.579 66.6483 33.6821 66.6384 33.8193ZM67.3368 34.3729C67.2065 34.3867 67.0943 34.4057 66.9997 34.4302C66.9062 34.4551 66.8309 34.4852 66.7755 34.5212C66.72 34.5568 66.6776 34.6042 66.6491 34.6643C66.6202 34.7248 66.6059 34.7979 66.6059 34.8826C66.6059 34.9976 66.6317 35.0838 66.6832 35.1415C66.7331 35.1989 66.8083 35.2281 66.9062 35.2281C66.9612 35.2281 67.0139 35.2143 67.0627 35.1878C67.1118 35.1621 67.1573 35.1238 67.1997 35.0747C67.2457 35.0225 67.2805 34.9494 67.3031 34.8553C67.3261 34.7612 67.3368 34.6441 67.3368 34.5046V34.3729Z" fill="white"/>
<path d="M72.5228 32.9642H74.9579V33.5617H74.181V35.6668H73.2802V33.5617H72.5228V32.9642Z" fill="white"/>
<path d="M79.2026 32.9643H80.0317V33.3644C80.1196 33.2193 80.2242 33.1094 80.3462 33.0362C80.4667 32.9623 80.6061 32.9255 80.7626 32.9255C80.9099 32.9255 81.0446 32.954 81.1686 33.0109C81.2914 33.0675 81.4027 33.1505 81.5006 33.2604C81.5984 33.3695 81.6725 33.5087 81.7212 33.676C81.7703 33.844 81.7945 34.0413 81.7945 34.2687C81.7945 34.5075 81.7703 34.7155 81.7212 34.8946C81.6733 35.0729 81.602 35.2227 81.5069 35.3433C81.4122 35.4639 81.297 35.5541 81.1611 35.6146C81.0252 35.6747 80.8707 35.7051 80.6976 35.7051C80.5736 35.7051 80.4603 35.685 80.3593 35.6438C80.2567 35.6035 80.1656 35.543 80.084 35.4639V36.5821H79.2026V32.9643ZM80.084 34.5593C80.084 34.6882 80.0903 34.7949 80.1034 34.8792C80.1169 34.9642 80.1359 35.0254 80.1624 35.0638C80.185 35.1022 80.2218 35.1322 80.273 35.1524C80.3244 35.1733 80.3874 35.184 80.4627 35.184C80.5312 35.184 80.591 35.1706 80.6433 35.1441C80.6944 35.1168 80.7368 35.0772 80.7693 35.0254C80.8022 34.9733 80.8271 34.8855 80.8434 34.7601C80.8596 34.6364 80.8672 34.4743 80.8672 34.2742C80.8672 34.107 80.8596 33.9674 80.8446 33.8547C80.8291 33.7424 80.8085 33.6578 80.7824 33.6001C80.7531 33.5396 80.7139 33.4957 80.6647 33.4668C80.616 33.4383 80.5574 33.4245 80.4888 33.4245C80.433 33.4245 80.3811 33.4328 80.3332 33.4502C80.284 33.4684 80.2405 33.4957 80.2013 33.534C80.1624 33.5728 80.1331 33.6349 80.1133 33.7199C80.0935 33.8053 80.084 33.9152 80.084 34.0496V34.5593Z" fill="white"/>
<path d="M111.683 37.1375V38.9725H108.113V51.2262H105.4V37.1375H111.683ZM116.205 46.767V51.2262H113.491V37.1375H115.838C116.632 37.1375 117.358 37.2099 118.014 37.3578C118.67 37.5025 119.248 37.7195 119.749 38.0058C120.25 38.3016 120.629 38.7654 120.886 39.4C121.143 40.0314 121.277 40.8372 121.289 41.8138C121.314 42.7316 121.208 43.5077 120.976 44.1423C120.739 44.7773 120.373 45.2771 119.872 45.6421C118.869 46.372 117.647 46.7472 116.205 46.767V46.767ZM116.205 45.1288C116.51 45.1288 116.796 45.0731 117.065 44.9644C117.329 44.8528 117.574 44.6852 117.794 44.4582C118.014 44.2412 118.177 43.9221 118.287 43.4978C118.392 43.0767 118.442 42.554 118.429 41.9325C118.417 41.2911 118.356 40.7581 118.242 40.3374C118.124 39.9195 117.953 39.6139 117.72 39.4265C117.488 39.2386 117.248 39.1007 116.999 39.0152C116.751 38.933 116.486 38.9033 116.205 38.933V45.1288ZM129.894 37.1375V38.9725H126.056V42.9779H128.94V44.8528H126.056V49.411H130.359V51.2262H123.343V37.1375H129.894ZM127.278 35.3618C127.278 34.6315 127.62 34.2167 128.305 34.1183C128.476 34.0791 128.672 34.0791 128.892 34.1183C129.576 34.2167 129.918 34.6315 129.918 35.3618C129.918 36.0917 129.576 36.5061 128.892 36.6045C128.672 36.6441 128.476 36.6441 128.305 36.6045C127.62 36.5061 127.278 36.0917 127.278 35.3618ZM123.465 35.3618C123.465 34.9965 123.551 34.7102 123.718 34.503C123.889 34.2958 124.137 34.1677 124.467 34.1183C124.577 34.0985 124.683 34.0886 124.781 34.0886C124.883 34.0886 124.981 34.0985 125.078 34.1183C125.408 34.1677 125.657 34.2958 125.828 34.503C125.995 34.7102 126.081 34.9965 126.081 35.3618C126.081 35.7268 125.995 36.0126 125.828 36.2198C125.657 36.4274 125.408 36.5551 125.078 36.6045C124.981 36.6243 124.883 36.6342 124.781 36.6342C124.683 36.6342 124.577 36.6243 124.467 36.6045C124.137 36.5551 123.889 36.4274 123.718 36.2198C123.551 36.0126 123.465 35.7268 123.465 35.3618ZM131.654 45.9971L134.001 45.78C133.989 46.2537 133.997 46.7076 134.021 47.1382C134.049 47.5728 134.098 47.9804 134.172 48.3651C134.245 48.7499 134.367 49.0393 134.535 49.2366C134.705 49.4307 134.917 49.5292 135.174 49.5292C135.37 49.5292 135.537 49.4699 135.671 49.352C135.809 49.2334 135.919 49.0559 136.005 48.8191C136.03 48.7202 136.054 48.5359 136.074 48.2695C136.099 48.003 136.115 47.6546 136.127 47.2205C136.127 46.372 136.078 45.8196 135.98 45.5634C135.846 45.2178 135.614 44.9679 135.284 44.8098C134.954 44.6555 134.526 44.5962 134.001 44.6354V42.9779C134.453 42.9878 134.832 42.9451 135.133 42.8466C135.439 42.7513 135.663 42.6034 135.809 42.4061C135.956 42.2183 136.062 41.9684 136.123 41.6525C136.185 41.3402 136.201 40.9653 136.176 40.5312C136.164 40.2845 136.139 40.0678 136.111 39.8804C136.078 39.6926 136.041 39.5348 136.005 39.4067C135.956 39.2782 135.883 39.1797 135.785 39.1141C135.687 39.0449 135.565 39.0121 135.418 39.0121C135.223 39.0022 135.06 39.0516 134.926 39.1568C134.795 39.2651 134.697 39.4265 134.636 39.6435C134.563 39.8705 134.489 40.1465 134.416 40.4754C134.343 40.8076 134.27 41.1923 134.196 41.6363L131.947 41.3208C132.058 39.8507 132.42 38.7519 133.031 38.022C133.642 37.2953 134.502 36.9402 135.614 36.96C135.944 36.96 136.25 36.996 136.539 37.0648C136.824 37.1375 137.093 37.2459 137.35 37.3937C137.606 37.542 137.834 37.7164 138.03 37.9168C138.225 38.1177 138.388 38.351 138.523 38.6171C138.657 38.8836 138.763 39.1766 138.837 39.4925C138.91 39.8112 138.951 40.1564 138.963 40.5312C138.987 40.7783 138.971 41.0543 138.91 41.3603C138.853 41.666 138.755 42.0017 138.621 42.3666C138.486 42.7316 138.254 43.0372 137.932 43.2772C137.606 43.5208 137.191 43.6983 136.69 43.807C137.521 43.9944 138.128 44.3792 138.507 44.9549C138.89 45.5333 139.049 46.3032 138.987 47.2604C138.963 47.7432 138.885 48.2141 138.751 48.6676C138.616 49.1247 138.425 49.5687 138.181 50.0029C137.924 50.437 137.549 50.7723 137.06 51.0056C136.567 51.2428 135.956 51.3741 135.223 51.4037C134.722 51.4235 134.257 51.3512 133.825 51.1831C133.397 51.019 132.998 50.7624 132.632 50.4172C132.253 50.0721 131.984 49.5292 131.821 48.793C131.662 48.0524 131.605 47.122 131.654 45.9971" fill="white"/>
</g>
</g>
<defs>
<filter id="filter0_d" x="-44" y="-38" width="307" height="368" filterUnits="userSpaceOnUse" color-interpolation-filters="sRGB">
<feFlood flood-opacity="0" result="BackgroundImageFix"/>
<feColorMatrix in="SourceAlpha" type="matrix" values="0 0 0 0 0 0 0 0 0 0 0 0 0 0 0 0 0 0 127 0"/>
<feOffset dy="6"/>
<feGaussianBlur stdDeviation="22"/>
<feColorMatrix type="matrix" values="0 0 0 0 0.00416666 0 0 0 0 0.6415 0 0 0 0 1 0 0 0 0.25 0"/>
<feBlend mode="normal" in2="BackgroundImageFix" result="effect1_dropShadow"/>
<feBlend mode="normal" in="SourceGraphic" in2="effect1_dropShadow" result="shape"/>
</filter>
<clipPath id="clip0">
<rect width="219" height="280" rx="10" fill="white"/>
</clipPath>
</defs>
</svg>
