<svg width="38" height="38" viewBox="0 0 38 38" fill="none" xmlns="http://www.w3.org/2000/svg">
<path d="M11.6306 15.6061C11.1143 15.0429 10.2225 14.9959 9.65919 15.5123C9.09593 16.0286 9.04899 16.9204 9.56532 17.4837L16.6531 25.1816C16.9347 25.4633 17.2633 25.651 17.6388 25.651C17.6388 25.651 17.6388 25.651 17.6857 25.651C18.0612 25.651 18.4367 25.5102 18.6714 25.2286L36.602 7.34491C37.1653 6.78165 37.1653 5.88981 36.602 5.37348C36.0388 4.85716 35.1469 4.81022 34.6306 5.37348L17.7327 22.2245L11.6306 15.6061Z" fill="url(#paint0_linear)"/>
<path d="M11.6306 15.6061C11.1143 15.0429 10.2225 14.9959 9.65919 15.5123C9.09593 16.0286 9.04899 16.9204 9.56532 17.4837L16.6531 25.1816C16.9347 25.4633 17.2633 25.651 17.6388 25.651C17.6388 25.651 17.6388 25.651 17.6857 25.651C18.0612 25.651 18.4367 25.5102 18.6714 25.2286L36.602 7.34491C37.1653 6.78165 37.1653 5.88981 36.602 5.37348C36.0388 4.85716 35.1469 4.81022 34.6306 5.37348L17.7327 22.2245L11.6306 15.6061Z" fill="url(#paint1_linear)"/>
<path d="M36.2735 17.5306C35.4755 17.5306 34.8653 18.1408 34.8653 18.9388C34.8653 27.6694 27.7306 34.8041 19 34.8041C10.2694 34.8041 3.13469 27.6694 3.13469 18.9388C3.13469 10.2082 10.2694 3.07347 19 3.07347C19.798 3.07347 20.4082 2.46326 20.4082 1.6653C20.4082 0.867346 19.798 0.257141 19 0.257141C8.7204 0.257141 0.318359 8.65918 0.318359 18.9388C0.318359 29.2184 8.7204 37.6204 19 37.6204C29.2796 37.6204 37.6816 29.2184 37.6816 18.9388C37.6816 18.1408 37.0714 17.5306 36.2735 17.5306Z" fill="url(#paint2_linear)"/>
<defs>
<linearGradient id="paint0_linear" x1="23.1151" y1="-2.18366" x2="23.1151" y2="39.9094" gradientUnits="userSpaceOnUse">
<stop stop-color="#00EFD1"/>
<stop offset="1" stop-color="#00ACEA"/>
</linearGradient>
<linearGradient id="paint1_linear" x1="23.1151" y1="3.61732" x2="23.1151" y2="26.9181" gradientUnits="userSpaceOnUse">
<stop stop-color="#00BD40"/>
<stop offset="1" stop-color="#07CC85"/>
</linearGradient>
<linearGradient id="paint2_linear" x1="19" y1="-2.18368" x2="19" y2="39.9094" gradientUnits="userSpaceOnUse">
<stop stop-color="#00BD40"/>
<stop offset="1" stop-color="#07CC85"/>
</linearGradient>
</defs>
</svg>
