<svg width="12" height="15" viewBox="0 0 12 15" fill="none" xmlns="http://www.w3.org/2000/svg">
<path d="M2.42567 15V12.144H0.598672V10.779H2.42567V8.91H0.598672V7.314H2.42567V0.00599903H6.37367C8.20767 0.00599903 9.56567 0.376999 10.4477 1.119C11.3437 1.861 11.7917 2.939 11.7917 4.353C11.7917 5.781 11.3087 6.901 10.3427 7.713C9.37667 8.511 7.95567 8.91 6.07967 8.91H4.31567V10.779H7.78067V12.144H4.31567V15H2.42567ZM4.31567 7.314H5.80667C7.08067 7.314 8.06767 7.104 8.76767 6.684C9.48167 6.264 9.83867 5.508 9.83867 4.416C9.83867 3.464 9.54467 2.757 8.95667 2.295C8.36867 1.833 7.45167 1.602 6.20567 1.602H4.31567V7.314Z" fill="#B3B3B3"/>
</svg>
